<svg width="109" height="62" viewBox="0 0 109 62" fill="none" xmlns="http://www.w3.org/2000/svg">
<g clip-path="url(#clip0_5375_426)">
<path d="M18.505 19H13.1873C13.1873 23.3442 11.1842 27.3086 7.70266 29.9199L5.60419 31.4866L13.7596 42.549H20.4604L12.9489 32.365C16.502 28.8516 18.505 24.1039 18.505 19Z" fill="#080808"/>
<path d="M4.93696 19H-0.5V42.549H4.93696V19Z" fill="#080808"/>
<path d="M27.1617 19H22.0347V42.549H27.1617V19Z" fill="#080808"/>
<path d="M72.1354 25.8135C70.18 25.8135 68.32 26.4069 67.08 28.0924V26.2645H62.2153V42.5494H67.1515V34.0034C67.1515 31.5345 68.8208 30.3239 70.8239 30.3239C72.97 30.3239 74.21 31.6058 74.21 33.9796V42.5731H79.0985V32.1992C79.0985 28.401 76.07 25.8135 72.1354 25.8135Z" fill="#080808"/>
<path d="M42.6621 26.2645V27.309C41.279 26.3595 39.6097 25.8135 37.7974 25.8135C33.0281 25.8135 29.165 29.6592 29.165 34.4069C29.165 39.1547 33.0281 43.0004 37.7974 43.0004C39.6097 43.0004 41.279 42.4544 42.6621 41.5049V42.5494H47.5506V26.2645H42.6621ZM38.2028 38.585C35.7466 38.585 33.7674 36.7096 33.7674 34.4069C33.7674 32.1043 35.7466 30.2289 38.2028 30.2289C40.659 30.2289 42.6382 32.1043 42.6382 34.4069C42.6382 36.7096 40.659 38.585 38.2028 38.585Z" fill="#080808"/>
<path d="M55.1332 28.3774V26.2646H50.1255V42.5495H55.1571V34.9531C55.1571 32.3893 57.9471 31.0124 59.8786 31.0124C59.9025 31.0124 59.9263 31.0124 59.9263 31.0124V26.2646C57.9471 26.2646 56.1109 27.1192 55.1332 28.3774Z" fill="#080808"/>
<path d="M94.3129 26.2645V27.309C92.9299 26.3595 91.2606 25.8135 89.4483 25.8135C84.679 25.8135 80.8159 29.6592 80.8159 34.4069C80.8159 39.1547 84.679 43.0004 89.4483 43.0004C91.2606 43.0004 92.9299 42.4544 94.3129 41.5049V42.5494H99.2014V26.2645H94.3129ZM89.8537 38.585C87.3975 38.585 85.4183 36.7096 85.4183 34.4069C85.4183 32.1043 87.3975 30.2289 89.8537 30.2289C92.3098 30.2289 94.2891 32.1043 94.2891 34.4069C94.3129 36.7096 92.3098 38.585 89.8537 38.585Z" fill="#080808"/>
<path d="M102.993 26.7392C102.993 26.5018 102.826 26.3594 102.564 26.3594H102.111V27.5938H102.325V27.1428H102.564L102.754 27.5938H102.993L102.778 27.0953C102.921 27.0241 102.993 26.9054 102.993 26.7392ZM102.564 26.9291H102.325V26.5493H102.564C102.707 26.5493 102.778 26.6205 102.778 26.7392C102.778 26.8579 102.731 26.9291 102.564 26.9291Z" fill="#080808"/>
<path d="M102.491 25.8372C101.848 25.8372 101.323 26.3594 101.323 27.0004C101.347 27.6413 101.848 28.1636 102.491 28.1636C103.135 28.1636 103.66 27.6413 103.66 27.0004C103.66 26.3594 103.135 25.8372 102.491 25.8372ZM102.491 27.9499C101.967 27.9499 101.561 27.5226 101.561 27.0004C101.561 26.4781 101.991 26.0508 102.491 26.0508C103.016 26.0508 103.421 26.4781 103.421 27.0004C103.421 27.5226 102.992 27.9499 102.491 27.9499Z" fill="#080808"/>
<path d="M104.423 36.7805C102.73 36.7805 101.347 38.1574 101.347 39.8428C101.347 41.5283 102.73 42.9051 104.423 42.9051C106.116 42.9051 107.5 41.5283 107.5 39.8428C107.5 38.1336 106.116 36.7805 104.423 36.7805Z" fill="#080808"/>
</g>
<defs>
<clipPath id="clip0_5375_426">
<rect width="108" height="62" fill="white" transform="translate(0.5)"/>
</clipPath>
</defs>
</svg>
