<svg width="165" height="62" viewBox="0 0 165 62" fill="none" xmlns="http://www.w3.org/2000/svg">
<path d="M11.7474 21.9154L14.9871 20.0508V27.8185L15.7262 28.2439L16.4671 27.8176V20.0508L19.7068 21.9154L20.4469 20.6382L15.7271 17.9219L11.0073 20.6382L11.7474 21.9154Z" fill="#1BA5E1"/>
<path d="M9.82506 38.9777L6.58537 37.1132L13.3336 33.2294V32.3785L12.5936 31.9521L5.84533 35.8351V32.1061H4.36523V37.5387L9.08502 40.2549L9.82506 38.9777Z" fill="#1BA5E1"/>
<path d="M15.7273 13.6631L0.665527 22.3312V39.6683L15.7273 48.3363L30.789 39.6683V22.3312L15.7273 13.6631ZM2.14561 38.8165V23.183L15.7273 15.3667L29.309 23.183V38.8165L15.7273 46.6328L2.14561 38.8165Z" fill="#1BA5E1"/>
<path d="M21.6296 23.0221L24.8693 24.8866L15.727 30.1485L6.58471 24.8866L9.82441 23.0221L9.08525 21.7449L4.36548 24.4603V29.8929H5.84467V26.1638L14.9879 31.4257L14.987 41.9486L11.7473 40.0841L11.0072 41.3613L15.727 44.0776L20.4468 41.3613L19.7068 40.0841L16.4671 41.9486V31.4249L25.6094 26.1638V29.8929H27.0894V24.4603L22.3697 21.7449L21.6296 23.0221Z" fill="#1BA5E1"/>
<path d="M25.6094 32.1062V35.8353L18.8611 31.9514L18.1211 32.3769V33.2295L24.8693 37.1133L21.6296 38.977L22.3697 40.2551L27.0895 37.5388V32.1062H25.6094Z" fill="#1BA5E1"/>
<path d="M29.6704 42.2219H29.8407C29.878 42.2219 29.9135 42.2201 29.949 42.2194C29.9836 42.2169 30.0146 42.2093 30.0413 42.1993C30.0688 42.1868 30.0901 42.1692 30.1069 42.1444C30.1238 42.1188 30.1318 42.0843 30.1318 42.0419C30.1318 42.0048 30.1248 41.9747 30.1097 41.9526C30.0946 41.93 30.0751 41.9138 30.052 41.9012C30.0281 41.8887 30.0023 41.8837 29.974 41.8786C29.9456 41.8761 29.9172 41.8736 29.8888 41.8736H29.6705L29.6704 42.2219ZM29.5044 41.7363H29.9161C30.1699 41.7363 30.2977 41.8399 30.2977 42.0467C30.2977 42.145 30.2693 42.2175 30.2152 42.2634C30.1593 42.3085 30.0909 42.3358 30.0093 42.3439L30.3225 42.8241H30.1442L29.8487 42.3571H29.6703V42.8241H29.5044L29.5044 41.7363Z" fill="#88888A"/>
<path d="M29.8611 41.3645C29.3535 41.3645 28.94 41.7757 28.94 42.2817C28.94 42.7876 29.3535 43.1998 29.8611 43.1998C30.3686 43.1998 30.7812 42.7876 30.7812 42.2817C30.7812 41.7757 30.3686 41.3645 29.8611 41.3645ZM29.8611 43.3856C29.2506 43.3856 28.7537 42.8902 28.7537 42.2817C28.7537 41.6731 29.2506 41.1787 29.8611 41.1787C30.4716 41.1787 30.9685 41.6731 30.9685 42.2817C30.9685 42.8902 30.4716 43.3856 29.8611 43.3856Z" fill="#88888A"/>
<path d="M55.9001 35.4137C55.3783 36.1142 54.475 37.0738 53.3507 37.0738H50.8413C50.4003 37.0738 49.9185 36.9147 49.5973 36.7139C49.1758 36.4742 48.3727 35.6533 48.1323 35.2933C47.8909 34.9333 47.811 34.5336 47.811 34.1532V27.8503C47.811 27.4709 47.8909 27.0905 48.1323 26.7305C48.3727 26.39 49.1758 25.5294 49.5973 25.2897C49.9185 25.1092 50.4003 24.9297 50.8413 24.9297H53.3507C54.475 24.9297 55.3783 25.9097 55.9001 26.5899C56.0607 26.81 56.1405 26.9702 56.3215 27.2904L54.2744 27.8706C54.2744 27.8706 53.6719 27.1303 53.3711 26.9499C53.3508 26.9298 53.3108 26.9298 53.2904 26.9298H50.9221C50.8821 26.9298 50.8413 26.9499 50.8413 26.9499C50.5813 27.0905 50.1394 27.5106 49.9389 27.8308C49.9185 27.8707 49.9185 28.0104 49.9185 28.0502V34.1329C49.9185 34.3734 50.5406 34.8936 50.8414 35.0537C50.8617 35.0737 50.9621 35.0737 50.9825 35.0737H53.2709C53.2905 35.0737 53.3312 35.0737 53.3712 35.0537C53.7926 34.8539 54.2745 34.1135 54.2745 34.1135L56.3216 34.653C56.161 35.0139 56.0607 35.1934 55.9001 35.4137Z" fill="#1A222B"/>
<path d="M58.1687 34.4529H60.6373V36.9737H58.1687V34.4529Z" fill="#1A222B"/>
<path d="M69.2288 36.9736V32.032H64.8533V36.9736H62.7458V25.009H64.8533V30.0312H69.2288V25.009H71.3362V36.9736H69.2288Z" fill="#1A222B"/>
<path d="M73.4443 34.4529H75.9129V36.9737H73.4443V34.4529Z" fill="#1A222B"/>
<path d="M89.0002 27.7896C89.0002 27.7896 89.0002 27.6896 88.9799 27.65C88.8601 27.4299 88.5389 27.0291 88.3383 27.0096H84.7046V30.2504H88.2372C88.4182 30.2504 88.8193 29.8701 88.9799 29.5906C88.9799 29.5906 89.0002 29.5507 89.0002 29.5101V27.7896ZM90.7465 30.7509C90.5655 31.011 89.9435 31.6116 89.6622 31.8115C89.5025 31.9308 89.3214 32.0316 89.1404 32.091L91.5292 36.9734H89.2407L87.0135 32.251H84.7046V36.9734H82.5972V25.0088H88.2371C88.7189 25.0088 89.2611 25.169 89.6622 25.4484C89.9435 25.6492 90.5655 26.2886 90.7465 26.5496C90.987 26.9096 91.1077 27.3492 91.1077 27.7693V29.5304C91.1077 29.9708 90.987 30.3909 90.7465 30.7509Z" fill="#1A222B"/>
<path d="M95.5847 34.1125C95.5847 34.1125 95.5847 34.1726 95.6051 34.1922C95.8456 34.5531 96.2671 34.9325 96.488 35.0528C96.528 35.0729 96.5679 35.0729 96.5883 35.0729H99.4784C99.4784 35.0729 99.5387 35.0729 99.5786 35.0528C99.7995 34.9325 100.221 34.5531 100.462 34.1922C100.482 34.1523 100.482 34.1125 100.482 34.1125V27.9298C100.482 27.9298 100.482 27.8501 100.462 27.8298C100.221 27.4698 99.7995 27.0691 99.5786 26.9497C99.5387 26.9296 99.4988 26.9297 99.4784 26.9297H96.5883C96.5883 26.9297 96.5084 26.9296 96.488 26.9497C96.2671 27.069 95.8456 27.4698 95.6051 27.8298C95.5847 27.8696 95.5847 27.9298 95.5847 27.9298V34.1125ZM102.269 35.2729C102.007 35.6135 101.225 36.4732 100.803 36.7138C100.482 36.9136 99.9806 37.0738 99.5591 37.0738H96.5085C96.0666 37.0738 95.5847 36.9136 95.2635 36.7138C94.842 36.4731 94.039 35.6135 93.7985 35.2729C93.5571 34.9129 93.4773 34.5123 93.4773 34.1328V27.8697C93.4773 27.4902 93.5571 27.0895 93.7985 26.7295C94.039 26.3899 94.842 25.5293 95.2635 25.2887C95.5847 25.0889 96.0666 24.9287 96.5085 24.9287H99.5591C99.9806 24.9287 100.482 25.0889 100.803 25.2887C101.225 25.5292 102.007 26.3899 102.269 26.7295C102.51 27.0895 102.59 27.4902 102.59 27.8697V34.1328C102.59 34.5123 102.51 34.9129 102.269 35.2729Z" fill="#1A222B"/>
<path d="M111.563 34.1722V32.7517C111.563 32.6915 111.542 32.6517 111.542 32.6517C111.362 32.3315 110.981 31.9715 110.8 31.9715H107.288V34.9726H110.82C111.001 34.9726 111.402 34.6126 111.542 34.3119C111.542 34.3119 111.563 34.2517 111.563 34.1722ZM111.563 29.2305V27.81C111.563 27.7701 111.542 27.71 111.542 27.71C111.362 27.3898 110.981 27.0095 110.8 27.0095H107.288V30.0309H110.82C111.001 30.0309 111.402 29.67 111.542 29.3702C111.542 29.3702 111.563 29.3303 111.563 29.2305ZM113.33 35.453C113.148 35.713 112.546 36.3331 112.266 36.5329C111.864 36.8133 111.302 36.9734 110.82 36.9734H105.18V25.0088H110.82C111.342 25.0088 111.864 25.1883 112.266 25.4688C112.546 25.6686 113.149 26.2887 113.33 26.5496C113.59 26.9291 113.67 27.3899 113.67 27.7897V29.2703C113.67 30.1106 113.349 30.5511 112.888 31.011C113.349 31.471 113.67 31.8911 113.67 32.7314V34.2518C113.67 34.6729 113.57 35.093 113.33 35.453Z" fill="#1A222B"/>
<path d="M116.521 25.0088H118.629V36.9734H116.521V25.0088Z" fill="#1A222B"/>
<path d="M127.982 36.9736L123.828 29.0309V36.9736H121.719V25.009H123.988L128.103 33.0518V25.009H130.21V36.9736H127.982Z" fill="#1A222B"/>
<path d="M141.552 35.273C141.311 35.6329 140.508 36.4732 140.087 36.7138C139.766 36.8933 139.263 37.0738 138.842 37.0738H135.349C134.166 37.0738 133.322 36.1132 132.8 35.4127C132.639 35.1933 132.599 35.0925 132.439 34.7927L134.426 34.1328C134.426 34.1328 134.827 34.6927 135.309 35.0527C135.309 35.0527 135.349 35.0728 135.449 35.0728H138.741C138.821 35.0728 138.862 35.0527 138.862 35.0527C139.163 34.8925 139.765 34.2929 139.765 34.1328V32.952C139.765 32.7715 139.624 32.6319 139.524 32.6124L134.306 31.1317C133.282 30.8513 132.74 29.8704 132.74 28.9505V27.8697C132.74 27.53 132.8 27.0896 133.041 26.7296C133.282 26.3696 134.105 25.5293 134.527 25.2887C134.848 25.1092 135.329 24.9287 135.771 24.9287H138.741C139.945 24.9287 140.769 25.9087 141.291 26.5898C141.451 26.8099 141.552 26.9896 141.692 27.2895L139.665 27.8697C139.665 27.8697 139.203 27.2099 138.781 26.9498C138.781 26.9498 138.761 26.9298 138.662 26.9298H135.831C135.751 26.9298 135.71 26.9498 135.71 26.9498C135.39 27.11 134.848 27.6698 134.848 27.8299V28.8302C134.848 29.0108 134.967 29.1505 135.069 29.1708L140.308 30.6912C141.331 30.9708 141.873 31.972 141.873 32.8724V34.1328C141.873 34.4725 141.813 34.913 141.552 35.273Z" fill="#1A222B"/>
<path d="M146.249 34.1125C146.249 34.1125 146.249 34.1726 146.269 34.1922C146.51 34.5531 146.931 34.9325 147.152 35.0528C147.192 35.0729 147.232 35.0729 147.252 35.0729H150.143C150.143 35.0729 150.203 35.0729 150.243 35.0528C150.464 34.9325 150.885 34.5531 151.127 34.1922C151.147 34.1523 151.147 34.1125 151.147 34.1125V27.9298C151.147 27.9298 151.147 27.8501 151.127 27.8298C150.885 27.4698 150.464 27.0691 150.243 26.9497C150.203 26.9296 150.163 26.9297 150.143 26.9297H147.252C147.252 26.9297 147.172 26.9296 147.152 26.9497C146.931 27.069 146.51 27.4698 146.269 27.8298C146.249 27.8696 146.249 27.9298 146.249 27.9298V34.1125ZM152.933 35.2729C152.672 35.6135 151.889 36.4732 151.468 36.7138C151.146 36.9136 150.645 37.0738 150.223 37.0738H147.173C146.731 37.0738 146.249 36.9136 145.928 36.7138C145.506 36.4731 144.703 35.6135 144.463 35.2729C144.221 34.9129 144.142 34.5123 144.142 34.1328V27.8697C144.142 27.4902 144.222 27.0895 144.463 26.7295C144.703 26.3899 145.506 25.5293 145.928 25.2887C146.249 25.0889 146.731 24.9287 147.173 24.9287H150.223C150.645 24.9287 151.146 25.0889 151.468 25.2887C151.889 25.5292 152.672 26.3899 152.933 26.7295C153.174 27.0895 153.254 27.4902 153.254 27.8697V34.1328C153.254 34.5123 153.174 34.9129 152.933 35.2729Z" fill="#1A222B"/>
<path d="M162.107 36.9736L157.952 29.0309V36.9736H155.844V25.009H158.113L162.227 33.0518V25.009H164.335V36.9736H162.107Z" fill="#1A222B"/>
</svg>
