<svg width="105" height="62" viewBox="0 0 105 62" fill="none" xmlns="http://www.w3.org/2000/svg">
<g clip-path="url(#clip0_5907_9514)">
<path d="M13.177 29.7361C13.177 29.2319 13.1612 28.7548 13.1612 28.3369C13.1612 25.6789 11.9104 24.3499 10.8605 23.7029C9.78789 23.0961 8.57792 22.7866 7.35134 22.8052C4.74921 22.8052 2.83199 23.552 1.64728 25.0211C0.964191 25.8919 0.551669 26.9507 0.462572 28.062C0.459927 28.0907 0.459927 28.1195 0.462572 28.1482C0.495126 28.5033 0.657726 28.8328 0.917966 29.0711C1.17821 29.3095 1.51698 29.439 1.86677 29.4341C2.19728 29.4685 2.52811 29.3721 2.79091 29.1649C3.05371 28.9577 3.22842 28.6555 3.2789 28.3208C3.58038 26.892 4.24942 25.5684 7.10806 25.5684C8.62333 25.5684 9.61235 25.8865 10.1306 26.5416C10.3084 26.7373 10.4434 26.9692 10.5268 27.2219C10.6103 27.4747 10.6402 27.7426 10.6146 28.0081C10.6146 28.4933 10.4348 29.0864 9.02793 29.4018C8.11558 29.604 7.15566 29.7172 6.22745 29.825L5.78319 29.8789C0.52075 30.5124 -0.272583 33.343 -0.272583 34.9712C-0.272583 37.9258 3.21277 39.5972 5.7303 39.678C5.8546 39.678 6.01325 39.678 6.19571 39.678C7.14787 39.6993 8.09486 39.5299 8.98298 39.1793L9.05964 39.147C9.93003 38.8089 10.7185 38.2831 11.3712 37.6057C12.0238 36.9283 12.5253 36.1152 12.8412 35.2219C13.2511 34.0978 13.2141 31.7795 13.177 29.7361ZM10.5009 32.7418C10.5009 36.1277 7.31167 36.869 6.08202 36.869C4.40543 36.869 2.59928 35.9606 2.59928 34.4887C2.59928 32.9036 3.99819 32.4048 6.93881 31.9466C7.70305 31.828 8.94859 31.6042 9.77364 31.4425C10.0235 31.3893 10.2672 31.3098 10.5009 31.2052V32.7418Z" fill="#1E2431"/>
<path d="M15.7211 24.4632C15.7211 23.8027 16.0437 23.4711 16.6942 23.4711H17.3738C18.0217 23.4711 18.347 23.8027 18.347 24.3149V25.2153C18.3468 25.4859 18.3274 25.7562 18.2888 26.024H18.347C18.347 26.024 19.6163 23.1045 23.3714 23.1045C27.3857 23.1045 29.9244 26.3529 29.9244 31.0786C29.9244 35.9309 27.0604 39.05 23.1652 39.05C22.2243 39.0793 21.2936 38.8432 20.4761 38.3674C19.6585 37.8918 18.9858 37.195 18.5321 36.3542H18.4739C18.5348 36.7926 18.564 37.235 18.5612 37.6778V43.7217C18.5612 44.3849 18.2359 44.7165 17.6171 44.7165H16.6942C16.0437 44.7165 15.7211 44.3849 15.7211 43.7217V24.4632ZM22.7156 36.5294C25.0771 36.5294 27.0234 34.5723 27.0234 31.1136C27.0234 27.8032 25.2834 25.6682 22.7923 25.6682C20.5604 25.6601 18.503 27.2614 18.503 31.1433C18.503 33.8525 19.9707 36.5294 22.7156 36.5294Z" fill="#1E2431"/>
<path d="M32.5184 24.4632C32.5184 23.8027 32.841 23.4711 33.4916 23.4711H34.1712C34.8193 23.4711 35.1443 23.8027 35.1443 24.3149V25.2153C35.1443 25.4859 35.1249 25.7562 35.0863 26.024H35.1443C35.1443 26.024 36.4137 23.1045 40.1687 23.1045C44.183 23.1045 46.7218 26.3529 46.7218 31.0786C46.7218 35.9309 43.8604 39.05 39.9625 39.05C39.0217 39.0793 38.0909 38.8432 37.2735 38.3674C36.4558 37.8918 35.783 37.195 35.3293 36.3542H35.2712C35.3321 36.7926 35.3613 37.235 35.3585 37.6778V43.7217C35.3585 44.3849 35.0334 44.7165 34.4146 44.7165H33.4995C32.849 44.7165 32.5264 44.3849 32.5264 43.7217L32.5184 24.4632ZM39.513 36.5294C41.8744 36.5294 43.8207 34.5723 43.8207 31.1136C43.8207 27.8032 42.0806 25.6682 39.5898 25.6682C37.3472 25.6682 35.282 27.2614 35.282 31.1433C35.2952 33.8525 36.7708 36.5294 39.5157 36.5294H39.513Z" fill="#1E2431"/>
<path d="M49.8527 25.9998H48.914C48.7826 26.0142 48.6494 25.9985 48.5246 25.9536C48.3998 25.9087 48.2861 25.8359 48.1926 25.7405C48.099 25.645 48.0278 25.5295 47.9836 25.4022C47.9394 25.2749 47.9241 25.1392 47.9384 25.005V24.6141C47.9245 24.4802 47.9401 24.3448 47.9846 24.2179C48.0288 24.0909 48.1001 23.9757 48.1939 23.8806C48.2875 23.7854 48.4005 23.7129 48.5253 23.6682C48.6498 23.6234 48.7826 23.6077 48.914 23.6221H49.8583V22.8996C49.8527 18.085 53.719 17.3032 55.2606 17.3032H55.6152C56.2577 17.3032 56.5828 17.6645 56.5828 18.2953V18.8668C56.5828 19.5299 56.2313 19.7995 55.5516 19.8615C54.4595 19.9208 52.7169 20.1904 52.7169 23.0209V23.6221H55.2846C55.416 23.6077 55.5488 23.6234 55.6733 23.6682C55.7981 23.7129 55.9114 23.7854 56.005 23.8806C56.0985 23.9757 56.1698 24.0909 56.2143 24.2179C56.2584 24.3448 56.2741 24.4802 56.2602 24.6141V25.005C56.2744 25.1392 56.2591 25.2749 56.215 25.4022C56.1712 25.5295 56.0995 25.645 56.006 25.7405C55.9125 25.8359 55.7991 25.9087 55.674 25.9536C55.5492 25.9985 55.416 26.0142 55.2846 25.9998H52.7169V37.7021C52.7169 38.3653 52.3943 38.6968 51.7438 38.6968H50.8287C50.2098 38.6968 49.8555 38.3653 49.8555 37.7021L49.8527 25.9998Z" fill="#1E2431"/>
<path d="M64.7332 23.1099C69.1918 23.1099 72.7907 26.4499 72.7907 31.0543C72.7907 35.6586 69.1918 39.0553 64.7332 39.0553C60.2748 39.0553 56.7073 35.6856 56.7073 31.0516C56.7073 26.4176 60.2853 23.1099 64.7332 23.1099ZM64.7332 36.5294C67.5682 36.5294 69.8688 34.2434 69.8688 31.0543C69.8688 27.8652 67.5682 25.6385 64.7332 25.6385C61.8985 25.6385 59.5979 27.8949 59.5979 31.0516C59.5979 34.2084 61.9302 36.5294 64.7332 36.5294Z" fill="#1E2431"/>
<path d="M75.2762 18.4461C75.2762 17.7866 75.6017 17.4559 76.2522 17.4541H77.1669C77.7858 17.4541 78.1401 17.7857 78.1401 18.4461V34.1814C78.1401 35.8985 78.8782 36.1385 79.4968 36.1978C79.6045 36.2007 79.7106 36.226 79.8083 36.2721C79.9063 36.3182 79.9939 36.3841 80.0659 36.4658C80.1379 36.5476 80.1928 36.6434 80.2272 36.7475C80.2617 36.8516 80.2752 36.9617 80.2665 37.0712V37.791C80.2665 38.4218 80.0019 38.8127 79.2614 38.8127C77.6749 38.8127 75.2762 38.3625 75.2762 34.5399V18.4461Z" fill="#1E2431"/>
<path d="M82.8394 24.4632C82.8394 23.8028 83.1936 23.4712 83.8125 23.4712H84.7276C85.3781 23.4712 85.7008 23.8028 85.7008 24.4632V37.7021C85.7008 38.3653 85.3781 38.6969 84.7276 38.6969H83.8205C83.2016 38.6969 82.8474 38.3653 82.8474 37.7021L82.8394 24.4632Z" fill="#1E2431"/>
<path d="M96.2151 23.1099C100.673 23.1099 104.273 26.4499 104.273 31.0543C104.273 35.6586 100.673 39.0553 96.2151 39.0553C91.7564 39.0553 88.1864 35.6856 88.1864 31.0516C88.1864 26.4176 91.754 23.1099 96.2151 23.1099ZM96.2151 36.5294C99.0497 36.5294 101.35 34.2434 101.35 31.0543C101.35 27.8652 99.0497 25.6385 96.2151 25.6385C93.3801 25.6385 91.0795 27.8949 91.0795 31.0516C91.0795 34.2084 93.4117 36.5294 96.2151 36.5294Z" fill="#1E2431"/>
</g>
<defs>
<clipPath id="clip0_5907_9514">
<rect width="105" height="62" fill="white"/>
</clipPath>
</defs>
</svg>
