<svg width="56" height="62" viewBox="0 0 56 62" fill="none" xmlns="http://www.w3.org/2000/svg">
<path d="M6.51465 10.335H47.4845V51.6621H6.51465V10.335Z" fill="#F8F7FF"/>
<path d="M6.51449 10.3348H32.2204C34.2896 10.3348 36.3593 10.3303 38.4242 10.3389C37.852 10.9247 37.2667 11.5063 36.6905 12.0923C36.9183 12.3351 37.1592 12.5608 37.3873 12.7995C37.9123 12.435 38.5059 12.1443 39.1512 12.0965C39.732 12.0357 40.3171 12.1878 40.8505 12.4221C41.0528 12.5088 41.2421 12.6476 41.47 12.6693C41.6938 12.6565 41.8616 12.4567 41.9389 12.257C42.0035 12.1184 41.9432 11.9533 41.8357 11.8534C41.3368 11.3458 40.8334 10.8467 40.3386 10.3389C42.722 10.3261 45.1054 10.3389 47.4847 10.3347C47.4847 12.6781 47.4888 15.0259 47.4847 17.3737C46.9941 16.8879 46.5165 16.393 46.0303 15.9069C45.9012 15.7722 45.6907 15.7028 45.5142 15.7853C45.398 15.8419 45.2861 15.9329 45.2345 16.0587C45.1699 16.3107 45.2819 16.5578 45.3808 16.7833C45.682 17.4257 45.8152 18.1505 45.7251 18.8579C45.6648 19.3396 45.4926 19.8126 45.2345 20.2249C45.1659 20.325 45.1013 20.4279 45.0408 20.5331C45.2904 20.7499 45.5013 21.0103 45.7551 21.223C46.323 20.6328 46.9081 20.0556 47.4847 19.4696C47.4847 23.3884 47.4888 27.3074 47.4847 31.2261C47.3724 31.2652 47.2479 31.3434 47.1317 31.2867C46.9769 31.187 46.8607 31.0395 46.7316 30.9137C45.3377 29.5162 43.9564 28.1057 42.5585 26.7128C42.0035 27.2727 41.4574 27.8367 40.8935 28.3836C41.1903 28.722 41.5216 29.0215 41.8315 29.3469C42.9501 30.4754 44.0685 31.6039 45.1914 32.7319C45.2861 32.8318 45.3978 32.9187 45.4496 33.0489C45.4668 33.1921 45.3679 33.3137 45.3292 33.4437C45.2731 33.5956 45.3938 33.7779 45.5529 33.7821C45.6948 33.8084 45.8154 33.7127 45.9057 33.6174C46.4305 33.0834 46.9597 32.554 47.4847 32.0245V51.6622H28.0126C28.5117 51.1587 29.0108 50.6596 29.5097 50.156C27.8111 48.4469 26.1146 46.7356 24.4203 45.0222C23.8654 45.5603 23.332 46.1202 22.7813 46.6625C22.6651 46.7841 22.536 46.9012 22.4802 47.0661C22.4543 47.2268 22.6006 47.3785 22.7554 47.3875C22.893 47.3699 23.0092 47.2786 23.1469 47.2483C23.2673 47.2399 23.3622 47.3353 23.448 47.4134C24.4549 48.4375 25.4659 49.4531 26.477 50.473C26.7304 50.7418 27.0061 50.9849 27.2425 51.2628C27.3502 51.3842 27.2769 51.5404 27.2168 51.662H15.5709L18.3198 48.8889C18.4918 48.724 18.6683 48.5332 18.694 48.2813C18.7328 47.9906 18.4404 47.6997 18.152 47.7605C17.9111 47.8082 17.7134 47.9992 17.4638 47.9992C17.3045 47.9864 17.1841 47.869 17.0764 47.7649C14.8867 45.5603 12.7013 43.3515 10.5157 41.1467C10.3695 40.9993 10.1932 40.8563 10.1414 40.6432C10.1329 40.3918 10.3092 40.1876 10.3738 39.9577C10.4553 39.667 10.1845 39.35 9.89174 39.3719C9.68972 39.3849 9.50905 39.5019 9.37147 39.6453C8.4247 40.6131 7.46127 41.5678 6.51467 42.5356C6.51033 31.8032 6.51449 21.0669 6.51449 10.3348Z" fill="#F96917"/>
<path d="M36.0665 12.7172C36.1052 12.6739 36.174 12.6347 36.2127 12.6999C39.2121 15.7211 42.2093 18.7445 45.2044 21.77C44.1521 22.8307 43.101 23.8924 42.0509 24.9552C41.9131 25.0854 41.7453 25.1939 41.5561 25.2069C41.2936 25.2288 41.0312 24.9899 41.0527 24.7208C41.0614 24.4562 41.285 24.2522 41.2893 23.983C41.298 23.8138 41.1689 23.6881 41.0612 23.5707C38.8371 21.3316 36.617 19.088 34.3929 16.8442C34.268 16.7227 34.1304 16.5708 33.9412 16.5839C33.6615 16.5881 33.4506 16.8487 33.167 16.8182C33.0033 16.8224 32.8699 16.6922 32.7882 16.5578C32.6764 16.3235 32.7796 16.0414 32.9475 15.8679C33.9885 14.8176 35.0297 13.7674 36.0665 12.7172ZM40.3858 13.5981C40.472 13.4376 40.6354 13.2901 40.829 13.316C41.044 13.3335 41.199 13.5114 41.3409 13.6545C42.2003 14.525 43.0608 15.3944 43.9223 16.2627C44.0858 16.4234 44.2793 16.5796 44.3181 16.8182C44.3396 17.0655 44.1159 17.2868 43.8793 17.3131C43.6814 17.3173 43.5007 17.209 43.3288 17.1133C42.9629 16.8964 42.55 16.7227 42.1153 16.7445C41.8916 16.7401 41.6767 16.8312 41.4743 16.9223C41.2377 16.6663 40.9667 16.4366 40.743 16.1718C40.8118 15.9764 40.9021 15.7898 40.9149 15.5812C40.9454 15.1085 40.756 14.6572 40.5192 14.2621C40.3988 14.0669 40.304 13.8238 40.3858 13.5981ZM21.4259 15.8982C21.8907 15.4036 22.3811 14.9392 22.8457 14.4487C23.2888 14.8826 23.7189 15.321 24.1536 15.7593C24.2955 15.8982 24.1663 16.1325 24.0073 16.189C23.8739 16.2063 23.7575 16.1152 23.6373 16.0717C23.1728 15.8418 22.5962 15.8161 22.1317 16.0675C22.0111 16.1196 21.9121 16.2237 21.783 16.2454C21.654 16.1413 21.5464 16.0109 21.4259 15.8982ZM21.1335 16.176C21.7658 16.7921 22.3768 17.4301 23.0006 18.0506C23.9773 19.0314 24.9494 20.021 25.9304 21.0018C25.3714 21.5721 24.8093 22.1391 24.2439 22.703C24.1277 22.833 23.8954 22.8896 23.7836 22.7289C23.646 22.5813 23.7962 22.3991 23.8395 22.2472C23.8911 22.1343 23.8009 22.0346 23.7276 21.9568C22.6013 20.8247 21.4771 19.6904 20.3549 18.5541C20.2517 18.4586 20.1655 18.3415 20.0408 18.2765C19.8688 18.2373 19.7354 18.3936 19.5676 18.4025C19.4385 18.3892 19.3182 18.2592 19.3354 18.1244C19.3439 18.0203 19.4041 17.9292 19.4773 17.8554C20.028 17.2956 20.5873 16.7445 21.1337 16.1758M23.3792 16.8704C23.3234 16.7273 23.4222 16.5538 23.5729 16.5321C23.6847 16.5147 23.7751 16.6015 23.8525 16.6752C24.3171 17.1438 24.7816 17.617 25.2506 18.0813C25.3321 18.1726 25.4485 18.2548 25.457 18.3894C25.4744 18.524 25.3453 18.6542 25.2077 18.641C25.0267 18.641 24.8891 18.4979 24.7258 18.437C24.4849 18.3244 24.1923 18.3156 23.9557 18.4458C23.8308 18.32 23.7059 18.1898 23.577 18.0726C23.6331 17.8816 23.6847 17.6778 23.6373 17.478C23.6029 17.2525 23.4479 17.0788 23.3792 16.8704ZM31.6177 17.209C31.7341 17.0918 31.8802 17.005 32.0439 16.9833C32.3317 16.94 32.6331 17.222 32.5773 17.5171C32.5386 17.7775 32.3235 17.9856 32.3406 18.2594C32.3836 18.45 32.5386 18.5802 32.6632 18.715C34.8617 20.9282 37.0601 23.137 39.2498 25.3546C39.3704 25.4633 39.4906 25.6066 39.663 25.6066C39.9211 25.6066 40.119 25.4112 40.3643 25.3676C40.6481 25.3201 40.9278 25.602 40.8932 25.8885C40.8762 26.0839 40.76 26.253 40.6267 26.3874C39.5207 27.4984 38.4195 28.6182 37.3139 29.7292C37.172 29.8723 36.9913 30.0025 36.7806 30.0025C36.548 30.0155 36.3244 29.8163 36.2944 29.5862C36.2642 29.2821 36.5438 29.0566 36.5352 28.7526C36.5223 28.6094 36.4235 28.4924 36.3288 28.3881C34.397 26.444 32.4696 24.4954 30.5381 22.5512C32.1342 25.5412 33.7432 28.5229 35.3393 31.5129C35.365 31.5562 35.3864 31.6042 35.4081 31.656C35.2915 31.7669 35.1782 31.8812 35.0683 31.9988C31.8717 30.4107 28.6795 28.8046 25.4872 27.2121C24.984 26.9605 24.4849 26.6654 23.917 26.596C23.7276 26.5697 23.5984 26.7262 23.4608 26.8261C23.3189 26.9387 23.1295 27.0081 22.9534 26.9517C22.7425 26.8564 22.5962 26.6047 22.6608 26.3747C22.7037 26.2183 22.8111 26.0881 22.9231 25.9751C23.9557 24.9381 24.984 23.8967 26.0165 22.8636C27.6253 23.658 29.2387 24.4346 30.8522 25.229C30.9037 25.2679 30.9595 25.3069 31.0069 25.359C31.0328 25.3285 31.0544 25.2982 31.0801 25.2679L31.0198 25.2764C30.1724 23.649 29.2819 22.0434 28.4342 20.416C29.5011 19.3484 30.5553 18.2765 31.6179 17.209M25.9691 17.9424C26.0466 17.7992 26.266 17.7818 26.3692 17.9033C26.8037 18.3459 27.247 18.7886 27.6856 19.2314C27.1955 19.7307 26.7023 20.2268 26.2059 20.7198C26.094 20.5896 25.9432 20.4855 25.8572 20.3336C25.9992 20.0907 26.1498 19.8431 26.1885 19.5568C26.2617 19.1618 26.1972 18.7453 26.0292 18.3808C25.982 18.242 25.8788 18.0813 25.9691 17.9425M18.7458 18.5934C18.8317 18.5022 18.9264 18.4067 19.0511 18.3764C19.1761 18.3505 19.3308 18.4285 19.348 18.5672C19.3783 18.7192 19.2664 18.8452 19.2363 18.9927C19.219 19.1098 19.3136 19.1923 19.3824 19.2705C20.5312 20.4289 21.6755 21.5878 22.8243 22.742C22.9018 22.816 22.9834 22.9071 23.0953 22.933C23.2329 22.9203 23.3487 22.829 23.4825 22.7986C23.646 22.7811 23.7964 22.9593 23.7448 23.1153C23.7235 23.2325 23.6331 23.3194 23.5557 23.402C22.9963 23.9662 22.4369 24.5301 21.8775 25.09C21.7789 25.1899 21.6498 25.294 21.5033 25.2593C21.4217 25.2246 21.3529 25.1594 21.3227 25.077C21.2798 24.886 21.482 24.7297 21.4346 24.5387C21.3917 24.4651 21.3314 24.4085 21.2752 24.3479C20.7506 23.8227 20.23 23.2889 19.7009 22.7639C19.5165 22.9542 19.3301 23.1423 19.1415 23.3282C19.0124 23.2022 18.8833 23.0762 18.7629 22.9418C18.9521 22.7552 19.1373 22.5644 19.3267 22.3775C18.8618 21.9177 18.4014 21.4488 17.9413 20.9844C17.8422 20.8891 17.7563 20.785 17.64 20.7156C17.4293 20.6462 17.2271 20.9457 17.0249 20.7806C16.8613 20.6638 16.913 20.4289 17.0464 20.3077C17.61 19.7303 18.182 19.1664 18.7458 18.5934Z" fill="#F8F7FF"/>
<path d="M16.5431 20.8458C16.6724 20.7629 16.8659 20.8151 16.926 20.9626C16.9863 21.1405 16.8271 21.2924 16.8228 21.4661C16.8185 21.5574 16.8916 21.6222 16.9475 21.683C18.1392 22.8853 19.3268 24.0873 20.5185 25.285C20.7334 25.5193 21.0089 25.1157 21.2411 25.2894C21.3918 25.411 21.3402 25.6495 21.2111 25.7623C20.6517 26.331 20.0882 26.8908 19.533 27.4591C19.4428 27.546 19.3525 27.6501 19.2277 27.6892C19.09 27.7283 18.9222 27.6414 18.9052 27.494C18.8793 27.3205 19.0342 27.1857 19.0255 27.0165C19.0038 26.9427 18.9568 26.8821 18.9052 26.8256C17.7771 25.6923 16.6513 24.5567 15.5277 23.4189C15.4204 23.3192 15.33 23.1932 15.1879 23.1413C15.0332 23.1326 14.9041 23.2498 14.7535 23.267C14.6244 23.2714 14.5125 23.1541 14.5082 23.0285C14.4953 22.8937 14.59 22.7856 14.6802 22.6943C15.2395 22.1301 15.7987 21.5658 16.3539 21.0017C16.414 20.9453 16.4698 20.8891 16.5431 20.8458ZM13.4327 23.9485C13.6908 23.6967 13.9403 23.4363 14.1984 23.1802C14.6503 23.6231 15.0933 24.0829 15.5451 24.5299C15.6226 24.6166 15.7171 24.6948 15.76 24.8076C15.8118 25.0204 15.571 25.2547 15.3599 25.1592C15.1492 25.0637 14.9816 24.8944 14.7792 24.7815C14.4394 24.569 14.0435 24.4346 13.6392 24.4822C13.523 24.3608 13.394 24.2478 13.2908 24.1177C13.325 24.0484 13.3811 24.0005 13.4327 23.9485ZM11.5569 25.8405C12.0388 25.3631 12.512 24.8814 12.9895 24.3997C13.8937 25.3161 14.8 26.2304 15.7084 27.1425C16.2075 27.6414 16.6937 28.1494 17.197 28.6399C17.3391 28.8002 17.5283 28.6658 17.6832 28.6092C17.838 28.5398 18.0188 28.6787 18.0145 28.8435C18.0145 28.9563 17.9499 29.0518 17.8769 29.1302C17.2918 29.716 16.7153 30.3018 16.1345 30.8878C16.0527 30.9701 15.9493 31.0525 15.829 31.0439C15.6955 31.057 15.5665 30.927 15.5791 30.7965C15.588 30.6577 15.6955 30.5448 15.6955 30.4059C15.7042 30.2886 15.605 30.2148 15.5362 30.1367C14.164 28.7611 12.8045 27.3726 11.4278 26.001C11.4709 25.9446 11.5096 25.8925 11.5569 25.8405ZM43.8448 25.4152C44.3782 25.9447 44.9075 26.4785 45.4324 27.0167C45.6 27.1773 45.4795 27.4982 45.2559 27.5331C45.0494 27.5634 44.8902 27.3985 44.7309 27.2902C44.3051 26.9947 43.8017 26.7172 43.2682 26.8083C43.1263 26.6781 42.9887 26.5435 42.8725 26.392C43.2038 26.0706 43.5222 25.7406 43.8446 25.4152M11.1181 26.2961C11.2774 26.3569 11.3762 26.5391 11.5053 26.6522C11.4365 27.1554 11.6729 27.6284 11.9524 28.0236C12.0344 28.1496 12.1333 28.2664 12.1849 28.4096C12.241 28.6006 12.056 28.8004 11.8666 28.7785C11.7591 28.7785 11.686 28.6873 11.6172 28.6223C11.1481 28.1448 10.6751 27.6764 10.2061 27.1989C10.5156 26.9036 10.8042 26.5872 11.1181 26.2961ZM20.6905 28.7439C21.5465 28.466 22.4757 28.4357 23.3577 28.6179C24.8548 28.9393 26.1799 29.8244 27.2384 30.9225C28.2751 31.9812 29.1012 33.3093 29.3809 34.789C29.5356 35.6005 29.5012 36.4511 29.2692 37.2453C29.0411 38.0308 28.6278 38.7556 28.1073 39.3805C27.8836 39.1418 27.6385 38.9205 27.4231 38.6775C27.4231 38.5602 27.4964 38.4603 27.5181 38.3477C27.6339 37.966 27.5181 37.5362 27.2297 37.2582C25.1044 35.1102 22.9707 32.962 20.8452 30.814C20.6515 30.6142 20.4066 30.4537 20.1269 30.432C19.8988 30.4017 19.6751 30.484 19.46 30.562C19.3738 30.6098 19.3181 30.5017 19.2621 30.4579C19.09 30.2716 18.9006 30.1022 18.7287 29.9112C18.7287 29.8984 18.7243 29.8721 18.7243 29.8591C19.2964 29.3644 19.968 28.9782 20.6905 28.7439ZM26.4899 28.5051C26.6877 28.5701 26.8682 28.67 27.0534 28.7655C27.7462 29.104 28.4343 29.4557 29.1314 29.7983C29.1915 29.8288 29.2473 29.8765 29.2992 29.9243C29.8839 30.5233 30.4737 31.1133 31.063 31.7079C31.3838 32.0507 31.7782 32.315 32.2159 32.4803C32.5213 32.5975 32.8656 32.5975 33.171 32.4889C33.326 32.4368 33.4938 32.3762 33.6573 32.4282C33.7391 32.4623 33.81 32.5183 33.8623 32.5903C33.9146 32.6622 33.9464 32.7473 33.954 32.8362C33.9411 33.0749 33.7905 33.2744 33.6314 33.4393C33.1051 33.9775 32.5745 34.5113 32.0396 35.0408C31.8977 35.171 31.7342 35.3056 31.5362 35.3271C31.2523 35.3704 30.9726 35.0669 31.0586 34.789C31.1405 34.5069 31.2523 34.2205 31.2051 33.9254C31.1361 33.4306 30.8564 32.9923 30.5467 32.6149C29.3809 31.4345 28.2107 30.2583 27.0405 29.0735C26.8595 28.8825 26.6618 28.7091 26.4899 28.5051ZM39.6113 29.6855C39.9342 29.3601 40.261 29.0345 40.5838 28.7049C40.7257 28.8219 40.8504 28.9609 40.9838 29.0911C40.9277 29.525 41.0743 29.9544 41.2979 30.3191C41.4138 30.5275 41.5818 30.7053 41.6851 30.9223C41.7411 31.0265 41.7023 31.1436 41.6634 31.2477C42.2064 31.6176 42.6799 32.082 43.0619 32.6191C43.4963 33.2399 43.8017 33.9777 43.7845 34.7501C43.7889 35.4835 43.4748 36.1863 43.0144 36.7418C42.8895 36.6116 42.7434 36.4946 42.6357 36.347C42.6574 36.1863 42.7347 36.0302 42.696 35.8697C42.6531 35.6615 42.4938 35.5138 42.3519 35.3704C41.2163 34.2291 40.0847 33.088 38.9532 31.9465C38.8414 31.8337 38.708 31.7296 38.5486 31.7166C38.3982 31.6991 38.2476 31.7425 38.11 31.7902C37.9766 31.6646 37.8434 31.5298 37.7143 31.3996C38.2863 30.9049 39.0304 30.5881 39.7921 30.6272C40.0847 30.6186 40.3687 30.688 40.6526 30.7532C40.3084 30.3929 39.9426 30.0543 39.6113 29.6855ZM17.0981 32.2329C17.3347 31.5689 17.7089 30.9614 18.1521 30.4188C18.3715 30.6447 18.6039 30.8615 18.819 31.0916C18.8619 31.2305 18.7502 31.3607 18.7285 31.4995C18.6168 31.8727 18.7629 32.2807 19.0342 32.5497C21.1249 34.6632 23.2201 36.7723 25.3153 38.8856C25.5176 39.1071 25.7625 39.3153 26.0724 39.3631C26.3476 39.4066 26.6189 39.3111 26.8725 39.2156C27.105 39.4499 27.3374 39.68 27.5695 39.9143C27.0619 40.3613 26.4725 40.7128 25.8443 40.9602C24.8979 41.3291 23.8396 41.3897 22.8458 41.1686C21.3356 40.8344 20.0063 39.9186 18.9437 38.8033C17.9629 37.7662 17.1711 36.4946 16.8916 35.0753C16.7024 34.1338 16.7629 33.1357 17.0981 32.2329ZM36.6515 33.4874C36.7033 32.8276 36.9914 32.1983 37.4218 31.7035C37.5463 31.8337 37.6799 31.9639 37.8088 32.0943C37.7615 32.2504 37.6882 32.4153 37.7315 32.58C37.7572 32.7279 37.856 32.845 37.9594 32.949C39.0952 34.0903 40.2222 35.236 41.3582 36.3773C41.4914 36.5075 41.6205 36.664 41.8099 36.7159C41.9818 36.7637 42.1583 36.7027 42.3258 36.6507C42.4552 36.7811 42.5886 36.9113 42.7132 37.05C42.1712 37.5013 41.4958 37.8183 40.7816 37.8183C40.089 37.8486 39.4093 37.6012 38.8329 37.2367C38.4154 36.9677 38.0325 36.6421 37.7141 36.2645C37.8647 36.7723 37.8305 37.3409 37.5937 37.8185C37.3615 38.2869 37 38.6689 36.643 39.0377C36.5139 38.9075 36.3805 38.773 36.2471 38.6428C36.3591 38.4603 36.4323 38.2434 36.3633 38.031C36.2816 37.8137 36.1051 37.6576 35.9504 37.4927C35.6302 37.1661 35.309 36.8406 34.9866 36.5163C34.7974 36.3382 34.595 36.1343 34.324 36.1169C34.1647 36.0998 34.023 36.1821 33.8895 36.2603C33.7563 36.1301 33.6271 35.9955 33.4938 35.8655C34.0097 35.3403 34.5993 34.7978 35.3566 34.7023C35.9761 34.5982 36.5999 34.8672 37.0387 35.2968C36.7634 34.7413 36.5914 34.1163 36.6513 33.4872M13.9747 35.0017C14.1038 34.8759 14.2716 34.7804 14.4522 34.7674C14.7491 34.7499 15.0203 35.0624 14.9383 35.3533C14.8739 35.5746 14.7147 35.7698 14.706 36.0088C14.7232 36.217 14.8954 36.3644 15.0332 36.5033L21.6584 43.1864C21.7616 43.2863 21.8778 43.386 22.0241 43.399C22.2735 43.399 22.4672 43.2127 22.7038 43.1561C22.9877 43.0997 23.2717 43.3601 23.2589 43.6464C23.2502 43.8418 23.1427 44.0197 23.0091 44.1584L19.6751 47.5221C19.5288 47.6651 19.3481 47.7909 19.1374 47.7909C18.8793 47.7996 18.6383 47.5524 18.6595 47.2874C18.6858 47.0272 18.9006 46.8188 18.9052 46.5497C18.8965 46.3892 18.7716 46.2676 18.6727 46.1549C17.6832 45.1524 16.6894 44.1584 15.7042 43.1605C15.6655 43.1302 15.6137 43.0432 15.558 43.1039C15.2138 43.438 14.8825 43.7897 14.5382 44.1237C14.306 43.8895 14.0737 43.6552 13.8413 43.4165C14.175 43.0646 14.5163 42.7203 14.8652 42.3837C14.8652 42.3661 14.8697 42.3272 14.8697 42.3097C13.9359 41.3857 13.0196 40.448 12.0904 39.5151C11.9484 39.3805 11.8148 39.2114 11.6172 39.1636C11.3462 39.146 11.1353 39.3589 10.8815 39.4066C10.5545 39.4632 10.2576 39.0898 10.3695 38.7815C10.4255 38.5646 10.5974 38.4083 10.7479 38.2611C11.8235 37.1717 12.9034 36.091 13.9747 35.0017ZM33.1839 36.1735C33.7002 36.6595 34.1864 37.1802 34.694 37.6793C35.6595 38.6568 36.6261 39.6332 37.5937 40.6085C37.6625 40.6651 37.727 40.7431 37.8173 40.7605C38.0025 40.778 38.1486 40.5956 38.3338 40.6303C38.4456 40.6693 38.5486 40.7782 38.536 40.9036C38.536 41.0729 38.3939 41.1903 38.2905 41.303C37.6841 41.9063 37.0859 42.5181 36.4795 43.1214C36.3461 43.2689 36.0964 43.1952 36.0148 43.0303C35.8944 42.8263 36.2212 42.6092 36.0492 42.4227C34.8008 41.1678 33.5546 39.9107 32.3106 38.6513C32.2201 38.5692 32.143 38.4651 32.0353 38.4085C31.8503 38.3562 31.704 38.5126 31.532 38.5345C31.3986 38.5213 31.2695 38.4041 31.278 38.2651C31.2652 38.1132 31.3771 37.9963 31.4716 37.8964C32.044 37.3234 32.6162 36.7464 33.1839 36.1735ZM29.3465 40.0403C29.8582 39.5326 30.3573 39.0074 30.878 38.5082C31.3383 38.9769 31.803 39.4413 32.2634 39.9099C32.4181 40.0618 32.2547 40.2919 32.0956 40.3613C31.9837 40.3742 31.8801 40.3049 31.7813 40.2616C31.3857 40.0662 30.9296 39.9707 30.4951 40.0835C30.2197 40.1401 29.9788 40.2961 29.7379 40.4393C29.6088 40.3049 29.4799 40.1705 29.3465 40.0403ZM27.2554 42.1536C27.8492 41.546 28.4517 40.9515 29.0452 40.3481C30.0089 41.3074 30.9596 42.2838 31.9277 43.2428C32.6678 43.985 33.3991 44.7358 34.1433 45.4736C33.567 46.0725 32.9734 46.654 32.3964 47.2485C32.315 47.3398 32.1987 47.3917 32.0912 47.4394C31.9837 47.4005 31.8503 47.3614 31.8159 47.2399C31.7514 47.0358 31.9621 46.8753 31.9364 46.6757C31.8503 46.5064 31.6996 46.3848 31.5706 46.2504L28.4343 43.0865C28.2494 42.913 28.0945 42.7049 27.8749 42.5747C27.6557 42.531 27.4578 42.8132 27.2471 42.6612C27.0664 42.5444 27.118 42.2838 27.2554 42.1536ZM31.4286 41.0775C31.3599 40.8994 31.5233 40.6911 31.7083 40.7214C31.7943 40.7433 31.8586 40.7995 31.9191 40.8603C32.3707 41.3205 32.8269 41.7717 33.2744 42.2317C33.4205 42.3837 33.6099 42.5139 33.6701 42.7308C33.614 42.8263 33.5539 42.9565 33.425 42.9695C33.2139 42.9914 33.0592 42.8219 32.8698 42.7524C32.7407 42.6877 32.5983 42.6545 32.4542 42.6553C32.31 42.6561 32.1681 42.6909 32.0396 42.7569C31.902 42.6181 31.7686 42.479 31.6309 42.3446C31.7255 42.1406 31.7684 41.9063 31.6996 41.6892C31.6481 41.4679 31.5018 41.2856 31.4286 41.0775ZM34.1948 42.21C34.2853 42.0712 34.5047 42.0495 34.6122 42.1797C35.0769 42.6528 35.5503 43.1214 36.0105 43.5987C35.4813 44.1195 34.9737 44.6663 34.4315 45.1741C34.307 45.0395 34.1734 44.9093 34.0441 44.7747C34.5047 44.2021 34.5691 43.373 34.2596 42.7135C34.2034 42.5571 34.0831 42.3661 34.1949 42.21" fill="#F8F7FF"/>
<path d="M6.51445 43.9373C6.68642 43.8679 6.85025 43.7592 7.03943 43.7638C7.26752 43.8071 7.40963 44.0111 7.56857 44.1628C9.73275 46.3371 11.8879 48.5156 14.0475 50.6898C14.1681 50.8245 14.3231 50.9589 14.3444 51.1499C14.3359 51.3364 14.2369 51.5015 14.1598 51.6664C11.6084 51.662 9.06169 51.662 6.51463 51.662C6.51463 49.0885 6.51028 46.5106 6.51463 43.9373" fill="#F96917"/>
<path d="M26.5417 43.82C27.3074 43.755 28.069 44.0325 28.7013 44.4536C29.1961 44.7878 29.6564 45.174 30.0091 45.6557C30.4309 46.2242 30.6888 46.9187 30.6934 47.6347C30.706 48.4506 30.3878 49.275 29.8114 49.8521C29.6786 49.7228 29.5481 49.5911 29.4198 49.4573C29.4971 49.3099 29.5875 49.1536 29.5618 48.9799C29.5189 48.7195 29.3424 48.507 29.1659 48.3289L26.262 45.3995C26.0641 45.2043 25.8402 44.9916 25.5478 44.97C25.3885 44.9527 25.2466 45.0351 25.1134 45.1132C24.9885 44.9744 24.8165 44.8703 24.739 44.6969C25.2122 44.2062 25.8576 43.8633 26.5417 43.82Z" fill="#F8F7FF"/>
</svg>
