<svg width="141" height="62" viewBox="0 0 141 62" fill="none" xmlns="http://www.w3.org/2000/svg">
<g clip-path="url(#clip0_5907_9160)">
<path d="M55.9263 27.302H60.5562C59.7839 22.458 55.5219 19.084 49.9753 19.084C43.4126 19.084 38.488 23.832 38.488 31.784C38.488 39.594 43.1911 44.438 50.1095 44.438C56.3186 44.438 60.7635 40.508 60.7635 34.146V31.182H50.5871V34.676H56.3673C56.2942 38.196 53.9061 40.424 50.1339 40.424C45.9349 40.424 43.0569 37.328 43.0569 31.736C43.0569 26.18 45.9836 23.096 50.0363 23.096C53.0606 23.096 55.1296 24.686 55.9263 27.302Z" fill="#1E1A28"/>
<path d="M63.8244 44.0998H68.2571V25.5998H63.8244V44.0998ZM66.06 22.6598C67.4685 22.6598 68.6189 21.5978 68.6189 20.2978C68.6189 18.9978 67.4685 17.9238 66.06 17.9238C64.6516 17.9238 63.489 18.9838 63.489 20.2978C63.489 21.6118 64.6312 22.6598 66.0519 22.6598H66.06Z" fill="#1E1A28"/>
<path d="M81.531 25.6003H77.8198V21.1562H73.3871V25.6003H70.7185V28.9742H73.3871V39.2663C73.3627 42.7483 75.9358 44.4663 79.2649 44.3643C80.1517 44.3469 81.0311 44.2007 81.8745 43.9303L81.1266 40.5182C80.703 40.6264 80.2675 40.6835 79.8299 40.6883C78.7141 40.6883 77.8198 40.3023 77.8198 38.5423V28.9643H81.531V25.6003Z" fill="#1E1A28"/>
<path d="M84.9617 44.0999H100.55V40.3519H89.5062V19.4199H84.9617V44.0999Z" fill="#1E1A28"/>
<path d="M109.042 44.4736C111.993 44.4736 113.755 43.1116 114.564 41.5576H114.71V44.0996H118.978V31.7116C118.978 26.8196 114.926 25.3496 111.336 25.3496C107.381 25.3496 104.345 27.0836 103.365 30.4576L107.505 31.0376C107.944 29.7716 109.194 28.6876 111.367 28.6876C113.426 28.6876 114.552 29.7236 114.552 31.5436V31.6156C114.552 32.8676 113.216 32.9296 109.897 33.2776C106.249 33.6636 102.76 34.7356 102.76 38.9056C102.747 42.5456 105.453 44.4736 109.042 44.4736ZM110.499 41.2736C108.65 41.2736 107.326 40.4416 107.326 38.8396C107.326 37.1636 108.808 36.4656 110.782 36.1876C111.946 36.0316 114.273 35.7416 114.846 35.2856V37.4656C114.859 39.5196 113.168 41.2676 110.499 41.2676V41.2736Z" fill="#1E1A28"/>
<path d="M122.243 44.0999H126.602V41.1839H126.858C127.557 42.5339 129.015 44.4259 132.248 44.4259C136.681 44.4259 140 40.9659 140 34.8699C140 28.6999 136.584 25.3499 132.236 25.3499C128.917 25.3499 127.533 27.3139 126.858 28.6519H126.671V19.4199H122.243V44.0999ZM126.59 34.8459C126.59 31.2459 128.157 28.9279 131.011 28.9279C133.962 28.9279 135.482 31.3979 135.482 34.8459C135.482 38.2939 133.939 40.8459 131.011 40.8459C128.181 40.8459 126.59 38.4359 126.59 34.8459Z" fill="#1E1A28"/>
<path d="M30.1308 27.8737L30.0882 27.7617L25.7794 16.7017C25.6922 16.4846 25.537 16.3004 25.3363 16.1757C25.1866 16.0814 25.0165 16.0229 24.8396 16.005C24.6628 15.987 24.4841 16.01 24.3179 16.0722C24.1518 16.1345 24.0027 16.2341 23.8827 16.3632C23.7628 16.4923 23.6752 16.6473 23.6271 16.8157L20.7186 25.5777H8.9407L6.03228 16.8157C5.98377 16.6476 5.89599 16.4929 5.77596 16.364C5.65592 16.2352 5.50695 16.1357 5.34091 16.0735C5.17488 16.0113 4.99638 15.9882 4.81965 16.006C4.64292 16.0237 4.47286 16.0818 4.32301 16.1757C4.12233 16.3004 3.96715 16.4846 3.87994 16.7017L-0.426787 27.7637L-0.471501 27.8737C-1.09154 29.4684 -1.16793 31.2181 -0.689146 32.8592C-0.210363 34.5002 0.797637 35.9436 2.18286 36.9717L2.19912 36.9837L2.2357 37.0117L8.7903 41.8457L12.0422 44.2637L14.0177 45.7337C14.2495 45.906 14.5321 45.9993 14.8226 45.9993C15.113 45.9993 15.3956 45.906 15.6274 45.7337L17.6029 44.2637L20.8548 41.8457L27.4562 36.9837L27.4744 36.9697C28.8596 35.942 29.8677 34.4991 30.3468 32.8584C30.826 31.2178 30.7502 29.4683 30.1308 27.8737Z" fill="#E34A30"/>
<path d="M30.1308 27.874L30.0881 27.762C27.9888 28.1859 26.0108 29.0615 24.2957 30.326L14.8347 37.366L20.8588 41.846L27.4602 36.984L27.4785 36.97C28.8629 35.9417 29.8702 34.4985 30.3486 32.8579C30.827 31.2173 30.7506 29.4681 30.1308 27.874Z" fill="#FD732E"/>
<path d="M8.79028 41.8462L12.0422 44.2642L14.0177 45.7342C14.2495 45.9065 14.5321 45.9997 14.8225 45.9997C15.113 45.9997 15.3956 45.9065 15.6274 45.7342L17.6029 44.2642L20.8548 41.8462L14.8307 37.3662L8.79028 41.8462Z" fill="#FDA531"/>
<path d="M5.36361 30.3257C3.64917 29.0618 1.67177 28.1869 -0.426787 27.7637L-0.471501 27.8737C-1.09154 29.4683 -1.16793 31.218 -0.689146 32.8591C-0.210363 34.5002 0.797637 35.9436 2.18286 36.9717L2.19912 36.9837L2.2357 37.0117L8.7903 41.8457L14.8185 37.3657L5.36361 30.3257Z" fill="#FD732E"/>
</g>
<defs>
<clipPath id="clip0_5907_9160">
<rect width="141" height="62" fill="white"/>
</clipPath>
</defs>
</svg>
