<svg width="112" height="62" viewBox="0 0 112 62" fill="none" xmlns="http://www.w3.org/2000/svg">
<g clip-path="url(#clip0_5907_9201)">
<path d="M7.10477 20.9513C7.21538 20.9465 7.32599 20.9416 7.43995 20.9365C8.71799 21.1017 9.83438 21.7859 10.9354 22.4231C11.0879 22.5103 11.2404 22.5975 11.393 22.6845C11.7033 22.8618 12.0133 23.0398 12.323 23.2183C12.7454 23.4616 13.1689 23.7027 13.5927 23.9433C14.311 24.3517 15.0269 24.7642 15.7419 25.1785C15.8907 25.264 15.8907 25.264 16.0425 25.3512C17.5424 26.2155 18.6158 26.9391 19.1657 28.6654C19.2507 29.0998 19.2469 29.5306 19.2486 29.9716C19.2494 30.0717 19.2503 30.1717 19.2511 30.2748C19.2537 30.6055 19.2552 30.9361 19.2565 31.2667C19.257 31.3801 19.2575 31.4934 19.2581 31.6102C19.2608 32.2106 19.2626 32.8109 19.2638 33.4113C19.2652 34.0289 19.2697 34.6464 19.2748 35.2639C19.2782 35.7409 19.2793 36.2179 19.2797 36.6949C19.2804 36.9224 19.2818 37.1499 19.2843 37.3774C19.2997 38.9379 19.1941 40.2772 18.1935 41.5402C17.6304 42.0911 16.9395 42.4597 16.258 42.8392C16.1723 42.8873 16.0866 42.9353 15.9982 42.9848C14.5869 43.7716 13.2497 44.4183 11.6032 43.9386C10.9299 43.6798 10.3037 43.3275 9.67735 42.9701C9.57545 42.9126 9.47355 42.8551 9.36857 42.7959C8.8101 42.4796 8.25536 42.1573 7.70255 41.831C6.76812 41.2802 5.82217 40.7503 4.87594 40.2207C1.40426 38.2633 1.40426 38.2633 0.903157 36.5599C0.725927 35.4389 0.753009 34.2985 0.752452 33.1667C0.752036 32.9664 0.751602 32.7661 0.75115 32.5658C0.750382 32.148 0.750138 31.7302 0.750215 31.3123C0.750228 30.7802 0.748463 30.248 0.746244 29.7158C0.744802 29.3028 0.744548 28.8898 0.744616 28.4767C0.744465 28.2806 0.743902 28.0846 0.742896 27.8885C0.735186 26.2313 0.747319 24.7993 1.87644 23.5126C3.13979 22.2798 5.32503 21.0018 7.10477 20.9513ZM4.258 22.8237C4.23032 27.7257 4.23032 27.7257 4.29025 32.6271C4.29207 32.7741 4.29389 32.9212 4.29577 33.0727C4.33431 34.3184 4.66288 35.395 5.52463 36.3105C6.1188 36.8364 6.79868 37.2167 7.4838 37.6064C7.59672 37.6708 7.70964 37.7353 7.82598 37.8016C8.35896 38.1052 8.89235 38.4079 9.42669 38.709C10.4082 39.2628 11.3792 39.8326 12.3467 40.4109C13.4157 41.0489 14.4891 41.6516 15.6128 42.1851C15.8661 41.9283 15.7715 41.4554 15.7741 41.1059C15.7768 41.0183 15.7794 40.9308 15.7822 40.8406C15.7868 40.2499 15.744 39.8826 15.3548 39.4379C14.9522 39.1646 14.5274 38.9426 14.0967 38.7184C13.8399 38.5806 13.5831 38.4427 13.3265 38.3045C13.1935 38.2333 13.0604 38.1621 12.9233 38.0887C12.2545 37.7264 11.5949 37.3479 10.9354 36.9687C10.8159 36.9003 10.6963 36.8319 10.5731 36.7614C9.99532 36.4298 9.41984 36.0941 8.84771 35.7524C8.69555 35.6617 8.69555 35.6617 8.54032 35.5691C7.66024 34.9873 7.08127 34.2112 6.76954 33.1949C6.69307 32.8146 6.69146 32.4555 6.68926 32.0673C6.68793 31.8992 6.68661 31.7311 6.68525 31.5579C6.6848 31.4684 6.68436 31.379 6.6839 31.2868C6.68237 31.0057 6.67986 30.7247 6.67705 30.4437C6.66911 29.6448 6.66212 28.846 6.65782 28.0472C6.65511 27.558 6.65056 27.0688 6.64482 26.5796C6.64299 26.3936 6.64187 26.2075 6.64146 26.0215C6.64082 25.761 6.63762 25.5005 6.63432 25.2401C6.63275 25.018 6.63275 25.018 6.63116 24.7915C6.57411 24.3427 6.45989 24.0997 6.19348 23.7395C5.79751 23.4647 5.79751 23.4647 5.34671 23.2407C5.19751 23.1616 5.04831 23.0825 4.89459 23.001C4.54651 22.8054 4.54651 22.8054 4.258 22.8237ZM10.0644 26.0942C10.0548 26.6851 10.0478 27.2759 10.0432 27.8668C10.0413 28.0673 10.0386 28.2677 10.0352 28.4681C10.0127 29.8406 10.0062 31.1651 10.8064 32.3409C10.8643 32.4293 10.9221 32.5176 10.9818 32.6087C11.7606 33.5288 12.7436 34.0685 13.7822 34.6466C13.9298 34.7304 14.0774 34.8142 14.2295 34.9006C14.8849 35.3279 14.8849 35.3279 15.6128 35.5133C15.9342 33.6262 16.091 31.0725 15.0497 29.397C14.2467 28.2789 13.0454 27.6491 11.8709 27.01C11.7094 26.9203 11.5479 26.8306 11.3865 26.7407C10.7503 26.3114 10.7503 26.3114 10.0644 26.0942Z" fill="#080808"/>
<path d="M93.9355 21.5156C95.4259 21.5156 96.9162 21.5156 98.4517 21.5156C98.7692 22.4203 99.0865 23.3252 99.4033 24.2301C99.4515 24.3679 99.4998 24.5057 99.5495 24.6477C100.46 27.2517 101.355 29.8614 102.242 32.4738C102.289 32.6142 102.337 32.7547 102.386 32.8995C102.476 33.1633 102.566 33.4273 102.655 33.6913C102.714 33.8654 102.714 33.8654 102.775 34.0431C102.809 34.1445 102.843 34.2458 102.879 34.3502C102.965 34.6042 102.965 34.6042 103.097 34.8593C103.47 34.0485 103.778 33.2321 104.051 32.3819C104.112 32.1969 104.112 32.1969 104.173 32.0082C104.26 31.7439 104.346 31.4796 104.431 31.2151C104.659 30.5141 104.888 29.8138 105.117 29.1134C105.163 28.9711 105.21 28.8288 105.258 28.6822C105.691 27.357 106.131 26.0339 106.576 24.7124C106.654 24.4791 106.732 24.2458 106.81 24.0124C106.919 23.689 107.027 23.3657 107.136 23.0425C107.168 22.9479 107.199 22.8532 107.232 22.7556C107.379 22.3219 107.539 21.9273 107.742 21.5156C109.147 21.5156 110.552 21.5156 112 21.5156C111.742 22.3888 111.475 23.244 111.168 24.0988C111.104 24.2776 111.104 24.2776 111.039 24.46C110.9 24.8496 110.761 25.239 110.621 25.6283C110.573 25.7639 110.524 25.8995 110.474 26.0392C109.714 28.1654 108.943 30.2876 108.161 32.4059C107.725 33.5875 107.292 34.7699 106.864 35.9544C106.635 36.5872 106.406 37.2196 106.177 37.8521C106.066 38.1571 105.956 38.4622 105.847 38.7675C103.916 44.1394 103.916 44.1394 102.71 45.5866C102.642 45.6716 102.573 45.7566 102.503 45.8441C101.821 46.6179 100.871 47.0822 99.871 47.2872C99.6095 47.2993 99.3476 47.3043 99.0857 47.3046C98.9337 47.3048 98.7817 47.305 98.6251 47.3051C98.4667 47.3046 98.3084 47.3041 98.1452 47.3036C97.9879 47.3041 97.8305 47.3046 97.6684 47.3051C97.4399 47.3049 97.4399 47.3049 97.2067 47.3046C96.9988 47.3044 96.9988 47.3044 96.7867 47.3042C96.3872 47.2872 96.3872 47.2872 95.613 47.1564C95.613 45.9908 95.613 44.8252 95.613 43.6243C96.7823 43.706 96.7823 43.706 97.1453 43.734C97.9744 43.7848 98.6387 43.7573 99.3146 43.2155C100.017 42.3304 100.71 40.9492 100.608 39.8013C100.512 39.2842 100.358 38.8179 100.166 38.3317C100.13 38.2376 100.094 38.1436 100.057 38.0467C99.9784 37.8417 99.8992 37.6368 99.8196 37.4321C99.645 36.9826 99.4725 36.5322 99.2999 36.0819C99.2067 35.839 99.1135 35.596 99.0201 35.3531C98.459 33.8919 97.9112 32.4255 97.363 30.9592C97.1565 30.4073 96.95 29.8554 96.7435 29.3035C96.6927 29.1676 96.6418 29.0318 96.5894 28.8918C96.2344 27.9436 95.8771 26.9963 95.5187 26.0494C95.3754 25.6701 95.2321 25.2908 95.0888 24.9115C94.9982 24.6719 94.9074 24.4324 94.8163 24.193C94.6913 23.864 94.5669 23.5348 94.4426 23.2056C94.4059 23.1095 94.3692 23.0135 94.3314 22.9146C94.1541 22.443 94.0339 22.0144 93.9355 21.5156Z" fill="#080808"/>
<path d="M70.2984 22.3251C71.4414 23.2946 72.0007 24.5034 72.2581 25.9635C72.2689 26.1683 72.2738 26.3735 72.2736 26.5786C72.2738 26.7582 72.2738 26.7582 72.2741 26.9415C72.2734 27.1362 72.2734 27.1362 72.2727 27.3348C72.2727 27.4727 72.2727 27.6105 72.2728 27.7526C72.2727 28.2078 72.2717 28.6629 72.2707 29.118C72.2704 29.4339 72.2702 29.7497 72.2701 30.0655C72.2696 30.8963 72.2683 31.7271 72.2669 32.5579C72.2656 33.4059 72.265 34.2538 72.2644 35.1018C72.263 36.7652 72.2607 38.4287 72.2581 40.0921C70.8955 40.0921 69.5329 40.0921 68.129 40.0921C68.1271 39.7106 68.1253 39.3291 68.1233 38.936C68.1168 37.6724 68.1082 36.4088 68.0986 35.1452C68.0928 34.3794 68.0878 33.6137 68.0843 32.8479C68.081 32.1082 68.0757 31.3686 68.0693 30.6289C68.0671 30.3474 68.0656 30.0659 68.0648 29.7843C68.0636 29.3886 68.0599 28.9929 68.0558 28.5971C68.056 28.4819 68.0562 28.3668 68.0563 28.2481C68.0401 27.1455 67.8204 26.0346 67.0968 25.1786C66.0659 24.4192 64.9673 24.4359 63.7419 24.5245C62.8134 24.7331 62.0268 25.2211 61.4193 25.9635C60.7623 27.0708 60.4982 27.9398 60.4896 29.2209C60.4884 29.3383 60.4871 29.4558 60.4858 29.5768C60.4817 29.9647 60.4785 30.3526 60.4753 30.7405C60.4726 31.0096 60.4699 31.2787 60.4672 31.5478C60.46 32.2558 60.4537 32.9638 60.4474 33.6718C60.441 34.3943 60.4338 35.1169 60.4267 35.8394C60.4128 37.257 60.3998 38.6746 60.3871 40.0921C59.0245 40.0921 57.6619 40.0921 56.2581 40.0921C56.2581 33.9619 56.2581 27.8316 56.2581 21.5156C57.5355 21.5156 58.8129 21.5156 60.129 21.5156C60.1716 22.3359 60.2142 23.1561 60.2581 24.0012C60.3725 23.8312 60.4869 23.6613 60.6048 23.4861C62.8746 20.5447 67.3727 20.197 70.2984 22.3251Z" fill="#080808"/>
<path d="M36.1291 21.5156C37.4491 21.5156 38.7691 21.5156 40.1291 21.5156C40.1317 21.8634 40.1342 22.2111 40.1369 22.5694C40.1455 23.7239 40.1556 24.8784 40.1662 26.0329C40.1726 26.7322 40.1786 27.4315 40.1836 28.1308C40.1883 28.8069 40.1943 29.4829 40.2011 30.159C40.2035 30.4157 40.2055 30.6724 40.207 30.9292C40.1545 33.7426 40.1545 33.7426 41.1614 36.2983C42.0595 37.0733 43.0118 37.1429 44.1513 37.1236C45.3462 37.026 46.3097 36.5687 47.0969 35.6442C47.7893 34.6173 47.909 33.4064 47.9122 32.1938C47.9135 32.0775 47.9148 31.9612 47.9161 31.8414C47.9201 31.4613 47.9223 31.0813 47.9245 30.7012C47.9269 30.4359 47.9294 30.1707 47.9321 29.9055C47.9387 29.2106 47.9438 28.5158 47.9486 27.8209C47.9538 27.1105 47.9604 26.4002 47.9668 25.6899C47.9793 24.2985 47.99 22.9071 48.0001 21.5156C49.3627 21.5156 50.7252 21.5156 52.1291 21.5156C52.1291 27.6459 52.1291 33.7761 52.1291 40.0921C50.8091 40.0921 49.4891 40.0921 48.1291 40.0921C48.0652 38.9265 48.0652 38.9265 48.0001 37.7374C47.8963 37.8911 47.7925 38.0449 47.6856 38.2034C46.8196 39.3645 45.5404 40.1837 44.1291 40.4846C41.9976 40.6312 39.8039 40.5912 38.0404 39.2183C36.8199 38.0887 36.2165 36.4455 36.1076 34.7948C36.0745 33.8563 36.0847 32.9175 36.0913 31.9787C36.092 31.6761 36.0926 31.3735 36.093 31.0709C36.0944 30.2797 36.0982 29.4885 36.1025 28.6973C36.1065 27.8878 36.1083 27.0783 36.1102 26.2689C36.1144 24.6844 36.1212 23.1 36.1291 21.5156Z" fill="#080808"/>
<path d="M91.5322 14.5493C91.6927 14.5499 91.8532 14.5506 92.0186 14.5513C92.6858 14.5571 93.278 14.5795 93.9354 14.7128C93.9354 15.7921 93.9354 16.8713 93.9354 17.9833C92.766 17.9588 92.766 17.9588 92.4031 17.9479C91.6966 17.9408 91.197 18.0141 90.5806 18.3758C90.3387 18.7579 90.2861 19.0732 90.2691 19.5225C90.2645 19.6274 90.2599 19.7323 90.2551 19.8405C90.2507 19.9723 90.2464 20.1041 90.2418 20.2399C90.2179 20.8713 90.2179 20.8713 90.1935 21.5154C91.3006 21.5154 92.4076 21.5154 93.5483 21.5154C93.5483 22.5515 93.5483 23.5876 93.5483 24.6551C92.4412 24.6551 91.3341 24.6551 90.1935 24.6551C90.1935 29.7493 90.1935 34.8434 90.1935 40.0919C88.8309 40.0919 87.4683 40.0919 86.0644 40.0919C86.0644 34.9978 86.0644 29.9037 86.0644 24.6551C85.0851 24.6551 84.1057 24.6551 83.0967 24.6551C83.0967 23.619 83.0967 22.5829 83.0967 21.5154C84.076 21.5154 85.0554 21.5154 86.0644 21.5154C86.0564 21.0729 86.0485 20.6304 86.0402 20.1745C86.0315 18.4324 86.2067 16.831 87.4556 15.5176C88.6232 14.5303 90.0815 14.5244 91.5322 14.5493Z" fill="#080808"/>
<path d="M12.8548 17.7954C13.1048 17.7875 13.1048 17.7875 13.3599 17.7795C14.6108 17.8618 15.7887 18.6497 16.8468 19.2753C17.1046 19.4255 17.3625 19.5756 17.6204 19.7255C17.7548 19.8038 17.8892 19.882 18.0276 19.9627C18.4697 20.2178 18.914 20.4687 19.3594 20.7179C19.4357 20.7606 19.512 20.8033 19.5906 20.8473C19.9601 21.0541 20.3298 21.2604 20.6999 21.4662C21.4227 21.8709 22.1386 22.2852 22.8447 22.719C22.9793 22.8016 23.1138 22.8842 23.2524 22.9693C24.1316 23.5716 24.6075 24.2785 24.9032 25.3094C24.9538 25.6795 24.9576 26.0429 24.9553 26.4162C24.9562 26.5214 24.9571 26.6266 24.958 26.7351C24.9604 27.0799 24.9599 27.4246 24.9592 27.7694C24.9597 28.0112 24.9604 28.2529 24.9612 28.4946C24.9624 29.0003 24.962 29.5058 24.9608 30.0114C24.9593 30.6566 24.9619 31.3016 24.9657 31.9467C24.968 32.4457 24.968 32.9447 24.9673 33.4437C24.9672 33.6814 24.968 33.9192 24.9696 34.1569C24.9777 35.5541 24.9841 36.7473 24.1602 37.933C23.4853 38.5821 22.765 39.0573 21.9516 39.5116C21.8292 39.5828 21.7068 39.6541 21.5806 39.7275C20.9149 40.1068 20.9149 40.1068 20.6451 40.2229C20.56 40.1797 20.4748 40.1366 20.3871 40.0921C20.4415 39.9848 20.4959 39.8776 20.5519 39.7671C20.6226 39.6261 20.6933 39.4851 20.7661 39.3399C20.8365 39.2002 20.9068 39.0606 20.9793 38.9167C21.276 38.2735 21.3105 37.7183 21.3131 37.0137C21.314 36.9151 21.3148 36.8166 21.3157 36.715C21.3183 36.3892 21.3198 36.0635 21.3211 35.7377C21.3216 35.626 21.3221 35.5142 21.3226 35.3991C21.3253 34.8071 21.3272 34.215 21.3284 33.623C21.3298 33.0146 21.3343 32.4061 21.3394 31.7977C21.3428 31.3273 21.3438 30.8569 21.3443 30.3866C21.3449 30.1625 21.3464 29.9384 21.3488 29.7143C21.3647 28.1362 21.319 26.6363 20.1683 25.431C19.5851 24.9359 18.9281 24.567 18.2672 24.191C17.8845 23.972 17.5042 23.7488 17.124 23.5254C15.5872 22.6249 14.0416 21.7405 12.4839 20.8778C12.2779 20.7623 12.2779 20.7623 12.0679 20.6445C11.099 20.113 10.2682 19.8173 9.16127 19.7332C9.03886 19.7234 8.91644 19.7136 8.79031 19.7035C8.69982 19.6971 8.60934 19.6907 8.51611 19.6841C9.01923 19.2474 9.53825 18.931 10.121 18.6212C10.2453 18.5531 10.2453 18.5531 10.3722 18.4837C11.1992 18.0394 11.906 17.8115 12.8548 17.7954Z" fill="#080808"/>
<path d="M76.5161 21.5156C77.8787 21.5156 79.2413 21.5156 80.6451 21.5156C80.6451 27.6459 80.6451 33.7761 80.6451 40.0921C79.2826 40.0921 77.92 40.0921 76.5161 40.0921C76.5161 33.9619 76.5161 27.8316 76.5161 21.5156Z" fill="#080808"/>
<path d="M76.5161 14.582C77.8787 14.582 79.2413 14.582 80.6451 14.582C80.6451 15.8772 80.6451 17.1723 80.6451 18.5066C79.2826 18.5066 77.92 18.5066 76.5161 18.5066C76.5161 17.2115 76.5161 15.9164 76.5161 14.582Z" fill="#080808"/>
</g>
<defs>
<clipPath id="clip0_5907_9201">
<rect width="112" height="62" fill="white"/>
</clipPath>
</defs>
</svg>
