<svg width="97" height="62" viewBox="0 0 97 62" fill="none" xmlns="http://www.w3.org/2000/svg">
<path d="M77.4491 41.9639H20.0139L24.595 46.4376L77.4491 41.9639Z" fill="#BE0201"/>
<path d="M86.669 39.1117V30.1644C86.669 28.4867 87.8715 27.0887 89.5894 27.0887C91.3073 27.0887 92.5099 28.4867 92.5099 30.1644V39.1117H96.0602V30.1644C96.0602 26.4736 93.4833 23.5098 89.7039 23.5098C87.986 23.5098 86.669 24.4604 86.669 24.4604V23.8453H83.1187V39.0558H86.669V39.1117Z" fill="#BE0201"/>
<path d="M74.9282 23.4541C70.8052 23.4541 67.8848 26.9771 67.8848 31.4508C67.8848 36.1482 71.5496 39.4475 75.2717 39.4475C77.1614 39.4475 79.5092 38.8324 81.5135 36.0363L78.364 34.2469C75.9589 37.714 71.8932 35.9804 71.4351 32.4574H81.628C82.5442 27.089 78.9366 23.4541 74.9282 23.4541ZM78.0204 29.4936H71.6641C72.4086 25.9705 77.3332 25.7469 78.0204 29.4936Z" fill="#BE0201"/>
<path d="M66.7409 35.4769C66.3974 35.7006 65.9965 35.8684 65.5384 35.8684C64.9658 35.8684 63.8778 35.421 63.8778 34.023V27.4802H66.9127V23.8454H63.8778V20.0427H60.3274V23.8454H58.4377V27.4802H60.3274V34.023C60.3274 37.4342 62.9616 39.4473 65.5957 39.4473C66.5691 39.4473 67.9435 39.1118 69.0315 38.4967L66.7409 35.4769Z" fill="#BE0201"/>
<path d="M53.6832 23.8457V32.7931C53.6832 34.4707 52.4807 35.8687 50.7628 35.8687C49.0449 35.8687 47.8423 34.4707 47.8423 32.7931V23.8457H44.292V32.7931C44.292 36.4839 46.8688 39.4477 50.6482 39.4477C52.3661 39.4477 53.6832 38.497 53.6832 38.497V39.0562H57.2335V23.8457H53.6832Z" fill="#BE0201"/>
<path d="M37.6521 31.0033L43.722 23.8454H38.7974L34.5026 29.1579V18.8125H30.895V39.1118H34.5026V32.8487L39.7708 39.1118H44.6955L37.6521 31.0033Z" fill="#BE0201"/>
<path d="M25.335 23.8455V24.5166C24.247 23.8455 23.3308 23.4541 22.0137 23.4541C18.0053 23.4541 14.9131 27.033 14.9131 31.4508C14.9131 35.8686 17.948 39.4475 22.0137 39.4475C23.3308 39.4475 24.3043 39.0561 25.335 38.385V39.0561H28.8854V23.8455H25.335ZM21.9565 35.8127C19.9523 35.8127 18.5207 33.9113 18.5207 31.5067C18.5207 29.1021 19.9523 27.2008 21.9565 27.2008C23.9607 27.2008 25.335 29.1021 25.335 31.5067C25.3923 33.9113 23.9607 35.8127 21.9565 35.8127Z" fill="#BE0201"/>
<path d="M4.72212 39.1118V33.1842H7.29898L11.8228 39.0559H16.4611L10.9638 31.9539C12.6817 30.7796 13.7697 28.8223 13.7697 26.5855C13.7697 22.9506 10.7348 20.0427 7.06992 20.0427H1V39.0559H4.72212V39.1118ZM4.72212 23.6776H7.12719C8.78782 23.6776 10.1621 25.0197 10.1621 26.6414C10.1621 28.2631 8.78782 29.6052 7.12719 29.6052H4.72212V23.6776Z" fill="#BE0201"/>
</svg>
