<svg width="146" height="62" viewBox="0 0 146 62" fill="none" xmlns="http://www.w3.org/2000/svg">
<g clip-path="url(#clip0_5907_9304)">
<path d="M143.126 26.3953V24.1425H144.278C144.371 24.1425 144.472 24.1689 144.58 24.2218C144.689 24.2727 144.782 24.3521 144.858 24.4599C144.936 24.5658 144.975 24.7001 144.975 24.8629C144.975 25.0277 144.935 25.1681 144.855 25.2841C144.774 25.3981 144.677 25.4846 144.562 25.5436C144.449 25.6026 144.342 25.6321 144.241 25.6321H143.409V25.2658H144.087C144.155 25.2658 144.228 25.2322 144.306 25.1651C144.386 25.0979 144.426 24.9972 144.426 24.8629C144.426 24.7245 144.386 24.6309 144.306 24.582C144.228 24.5332 144.159 24.5088 144.1 24.5088H143.625V26.3953H143.126ZM144.5 25.333L145.067 26.3953H144.519L143.964 25.333H144.5ZM143.989 27.7385C143.648 27.7385 143.328 27.6754 143.03 27.5492C142.733 27.423 142.471 27.248 142.245 27.0241C142.019 26.8003 141.842 26.5408 141.715 26.2457C141.587 25.9506 141.523 25.6342 141.523 25.2964C141.523 24.9585 141.587 24.6421 141.715 24.347C141.842 24.0519 142.019 23.7924 142.245 23.5686C142.471 23.3447 142.733 23.1697 143.03 23.0435C143.328 22.9173 143.648 22.8542 143.989 22.8542C144.33 22.8542 144.649 22.9173 144.947 23.0435C145.245 23.1697 145.507 23.3447 145.733 23.5686C145.959 23.7924 146.135 24.0519 146.263 24.347C146.39 24.6421 146.454 24.9585 146.454 25.2964C146.454 25.6342 146.39 25.9506 146.263 26.2457C146.135 26.5408 145.959 26.8003 145.733 27.0241C145.507 27.248 145.245 27.423 144.947 27.5492C144.649 27.6754 144.33 27.7385 143.989 27.7385ZM143.989 27.1523C144.334 27.1523 144.648 27.0689 144.932 26.902C145.215 26.7352 145.441 26.5113 145.61 26.2305C145.778 25.9496 145.862 25.6382 145.862 25.2964C145.862 24.9545 145.778 24.6431 145.61 24.3622C145.441 24.0814 145.215 23.8575 144.932 23.6907C144.648 23.5238 144.334 23.4404 143.989 23.4404C143.644 23.4404 143.329 23.5238 143.046 23.6907C142.762 23.8575 142.536 24.0814 142.368 24.3622C142.199 24.6431 142.115 24.9545 142.115 25.2964C142.115 25.6382 142.199 25.9496 142.368 26.2305C142.536 26.5113 142.762 26.7352 143.046 26.902C143.329 27.0689 143.644 27.1523 143.989 27.1523Z" fill="#000457"/>
<mask id="mask0_5907_9304" style="mask-type:luminance" maskUnits="userSpaceOnUse" x="0" y="11" width="143" height="40">
<path d="M142.056 11H0.5V50.8879H142.056V11Z" fill="white"/>
</mask>
<g mask="url(#mask0_5907_9304)">
<path d="M46.9404 40.9148V20.9529H49.0412V32.7428L51.2274 32.6297L55.2376 27.0134H57.6192L53.0512 33.409L57.8188 40.9148H55.4372L51.26 34.4669L49.0453 34.5517V40.9189H46.9404V40.9148Z" fill="#000457"/>
<path d="M71.9457 33.8007C71.9457 38.8599 70.6835 41.1978 65.9447 41.1978C61.2058 41.1978 59.9438 38.864 59.9438 33.8007C59.9438 29.0203 61.5152 26.739 65.9447 26.739C70.4027 26.739 71.9457 29.0162 71.9457 33.8007ZM69.7879 33.8007C69.7879 29.9368 68.9452 28.5479 65.9488 28.5479C62.9524 28.5479 62.1097 29.9368 62.1097 33.8007C62.1097 37.6649 62.643 39.389 65.9488 39.389C69.2545 39.389 69.7879 37.7456 69.7879 33.8007Z" fill="#000457"/>
<path d="M75.9275 40.915V27.0135H77.9998V27.9865C77.9998 27.9865 80.1045 26.7349 82.0912 26.7349C83.968 26.7349 85.0062 27.1508 85.735 28.1521C85.735 28.1521 88.2307 26.7349 90.7262 26.7349C94.537 26.7349 95.4653 28.5437 95.4653 33.5746V40.915H93.3645V33.6311C93.3645 29.9609 92.9452 28.6003 90.421 28.6003C88.3446 28.6003 86.4678 29.6298 86.4678 29.6298C86.7203 30.2678 86.8341 32.0201 86.8341 33.6876V40.915H84.7336V33.7441C84.7336 29.9084 84.3426 28.6003 81.7901 28.6003C79.7992 28.6003 78.0322 29.6298 78.0322 29.6298V40.919H75.9275V40.915Z" fill="#000457"/>
<path d="M111.307 33.8007C111.307 38.8599 110.044 41.1978 105.306 41.1978C100.567 41.1978 99.3047 38.864 99.3047 33.8007C99.3047 29.0203 100.876 26.739 105.306 26.739C109.764 26.739 111.307 29.0162 111.307 33.8007ZM109.145 33.8007C109.145 29.9368 108.302 28.5479 105.306 28.5479C102.309 28.5479 101.466 29.9368 101.466 33.8007C101.466 37.6649 102 39.389 105.306 39.389C108.612 39.389 109.145 37.7456 109.145 33.8007Z" fill="#000457"/>
<path d="M126.048 40.9148H123.972V39.9702C123.972 39.9702 121.814 41.1935 119.71 41.1935C116.962 41.1935 114.661 40.0832 114.661 34.0751C114.661 29.1816 116.257 26.7348 120.52 26.7348C121.725 26.7348 123.549 27.0134 123.968 27.0981V20.9529H126.044V40.9148H126.048ZM123.976 38.3026V28.8788C123.528 28.794 121.79 28.5436 120.642 28.5436C117.698 28.5436 116.831 30.4615 116.831 34.0751C116.831 38.5772 118.317 39.3282 119.97 39.3282C121.957 39.3282 123.976 38.3026 123.976 38.3026Z" fill="#000457"/>
<path d="M142.056 33.8007C142.056 38.8599 140.794 41.1978 136.055 41.1978C131.316 41.1978 130.054 38.864 130.054 33.8007C130.054 29.0203 131.626 26.739 136.055 26.739C140.513 26.739 142.056 29.0162 142.056 33.8007ZM139.898 33.8007C139.898 29.9368 139.056 28.5479 136.059 28.5479C133.063 28.5479 132.22 29.9368 132.22 33.8007C132.22 37.6649 132.753 39.389 136.059 39.389C139.365 39.389 139.898 37.7456 139.898 33.8007Z" fill="#000457"/>
<path d="M6.30555 24.2961V37.592L12.1111 40.9151L17.9167 44.2381V50.888L0.5 40.9151V20.9731L6.30555 24.2961Z" fill="white"/>
<path d="M17.917 17.6501V30.9461L29.528 24.2961L17.917 17.6501Z" fill="white"/>
<path d="M29.528 17.6502L23.7224 14.3232L17.9169 11.0002L13.4996 13.5278L12.1114 14.3232L6.3058 17.6502V17.6462L0.500244 20.9732L6.3058 24.2962L11.0569 21.5748L12.1114 20.9732L17.9169 17.6502L29.528 24.2962L35.3294 20.9732L29.528 17.6502Z" fill="#EEDAC8"/>
<path d="M23.7224 27.6191V34.2691L22.4928 34.9717L17.9168 37.592L12.1112 34.2691V32.6055V27.6191L17.9168 24.2961V17.6501L13.2593 20.315L9.90463 22.2369L6.30566 24.2961V37.592L17.9168 44.2379L23.7224 40.915L29.528 37.592V24.2961L23.7224 27.6191Z" fill="#49CDE8"/>
<path d="M29.528 24.2961V37.592L23.7225 40.9151L17.917 44.2381V50.888L35.3297 40.9151V20.9731L29.528 24.2961Z" fill="#98765F"/>
<path d="M17.9169 30.9459V24.2959L12.1113 27.6189V32.6054V34.269L17.9169 37.5919L22.4929 34.9713L23.7224 34.269V27.6189L17.9169 30.9459Z" fill="#000457"/>
</g>
</g>
<defs>
<clipPath id="clip0_5907_9304">
<rect width="146" height="62" fill="white"/>
</clipPath>
</defs>
</svg>
