<svg width="120" height="62" viewBox="0 0 120 62" fill="none" xmlns="http://www.w3.org/2000/svg">
<path d="M18.2739 28.3126L26.6879 32.1695L35.1679 24.683C35.2979 24.0622 35.3479 23.4574 35.3479 22.8033C35.3442 20.2729 34.3436 17.8472 32.5654 16.0579C30.7872 14.2686 28.3766 13.2618 25.8619 13.2581C22.7269 13.2581 19.8199 14.8107 18.0489 17.4098L16.6359 24.7806L18.2739 28.3126Z" fill="#FED222"/>
<path d="M9.56721 37.2689C9.43721 37.8898 9.38721 38.5268 9.38721 39.1808C9.39197 41.718 10.3968 44.1496 12.1812 45.9421C13.9656 47.7347 16.3838 48.7417 18.9052 48.7422C20.4551 48.7422 21.9816 48.361 23.3517 47.6318C24.7217 46.9025 25.8939 45.8474 26.7662 44.5582L28.1632 37.2196L26.2952 33.6243L17.8492 29.7502L9.56721 37.2689Z" fill="#30BDB3"/>
<path d="M9.51963 22.6247L15.2856 23.9972L16.5526 17.4103C15.7726 16.8066 14.7986 16.4785 13.7926 16.4785C12.5866 16.479 11.4301 16.9614 10.5773 17.8195C9.72449 18.6776 9.24516 19.8414 9.24463 21.0549C9.24463 21.5943 9.34063 22.1336 9.51963 22.6247Z" fill="#F0569B"/>
<path d="M9.01539 24.0139C6.44939 24.8642 4.64539 27.3476 4.64539 30.0776C4.64539 32.7421 6.28539 35.1118 8.73839 36.0597L16.8284 28.704L15.3504 25.5173L9.01539 24.0139Z" fill="#26ABE1"/>
<path d="M28.2255 44.5574C29.0215 45.1611 29.9795 45.5053 30.9705 45.5053C32.1765 45.5047 33.333 45.0224 34.1858 44.1643C35.0386 43.3061 35.5179 42.1424 35.5185 40.9288C35.5194 40.388 35.426 39.8513 35.2425 39.343L29.4925 37.9866L28.2255 44.5574Z" fill="#96CA45"/>
<path d="M29.3959 36.468L35.7309 37.9553C36.9991 37.5282 38.1025 36.7122 38.8861 35.6217C39.6697 34.5313 40.0942 33.2212 40.0999 31.8755C40.0999 29.2291 38.4599 26.8412 36.0069 25.9084L27.7229 33.2138L29.3959 36.468Z" fill="#187DA4"/>
<path d="M56.8972 38.7731L57.6602 38.6926L57.7102 40.2624C55.6962 40.5401 53.9742 40.687 52.5452 40.687C50.6452 40.687 49.2972 40.1316 48.5012 39.0197C47.7052 37.9077 47.3152 36.176 47.3152 33.8375C47.3152 29.1634 49.1672 26.8259 52.8552 26.8259C54.6422 26.8259 55.9752 27.3331 56.8512 28.3293C57.7272 29.3254 58.1672 30.9113 58.1672 33.0526L58.0532 34.572H49.3112C49.3112 36.0432 49.5712 37.138 50.1072 37.8403C50.6432 38.5427 51.5532 38.9029 52.8672 38.9029C54.2112 38.9323 55.5558 38.8886 56.8952 38.7721L56.8972 38.7731ZM56.1822 33.0033C56.1822 31.3691 55.9222 30.2089 55.4022 29.5388C54.8822 28.8686 54.0382 28.5255 52.8682 28.5255C51.6982 28.5255 50.8052 28.8847 50.2202 29.5881C49.6352 30.2914 49.3272 31.4345 49.3202 33.0043L56.1822 33.0033ZM60.9252 40.6035V23.0676H62.9072V40.6045L60.9252 40.6035ZM75.4302 31.1407V37.8584C75.4302 38.5286 77.0702 38.4954 77.0702 38.4954L76.9732 40.2604C75.5762 40.2604 74.4232 40.3751 73.7252 39.7049C72.2263 40.3706 70.6046 40.7104 68.9662 40.7021C67.7482 40.7021 66.8222 40.36 66.1892 39.6556C65.5562 38.9693 65.2312 37.9721 65.2312 36.665C65.2312 35.374 65.5562 34.411 66.2062 33.8053C66.8562 33.1995 67.8792 32.8091 69.2762 32.6783L73.4342 32.2758V31.1317C73.4342 30.2331 73.2392 29.579 72.8492 29.1866C72.4592 28.7941 71.9232 28.5979 71.2572 28.5979H66.0412V26.841H71.1252C72.6192 26.841 73.7082 27.1831 74.3902 27.8875C75.0882 28.5738 75.4302 29.6696 75.4302 31.1407ZM67.2762 36.5674C67.2762 38.2016 67.9422 39.0186 69.2902 39.0186C70.4961 39.0212 71.6936 38.8167 72.8312 38.4139L73.4312 38.2026V33.7942L69.5172 34.1705C68.7212 34.2359 68.1532 34.4644 67.7952 34.8568C67.4372 35.2492 67.2752 35.8208 67.2752 36.5574L67.2762 36.5674ZM83.1762 28.6241C81.2592 28.6241 80.2862 29.2942 80.2862 30.6507C80.2862 31.2715 80.5132 31.7133 80.9522 31.9749C81.3912 32.2365 82.3982 32.4981 83.9722 32.7759C85.5462 33.0536 86.6522 33.4299 87.3022 33.9361C87.9522 34.4261 88.2772 35.3579 88.2772 36.7304C88.2772 38.103 87.8372 39.1002 86.9612 39.7391C86.0852 40.3781 84.8172 40.7031 83.1282 40.7031C82.0402 40.7031 78.3852 40.2946 78.3852 40.2946L78.4992 38.5618L83.1442 38.921C84.1672 38.921 84.9472 38.758 85.4842 38.431C86.0212 38.104 86.2962 37.5485 86.2962 36.7807C86.2962 36.013 86.0692 35.4897 85.6142 35.211C85.1592 34.9323 84.1522 34.6716 82.5942 34.4261C81.0362 34.1806 79.9302 33.8224 79.2812 33.3313C78.6312 32.8584 78.3062 31.9588 78.3062 30.6668C78.3062 29.3747 78.7612 28.4128 79.6702 27.7889C80.5792 27.165 81.7172 26.8571 83.0652 26.8571C84.1372 26.8571 87.8732 27.1348 87.8732 27.1348V28.8837L83.1792 28.6221L83.1762 28.6241ZM97.8592 28.8525H93.6522V35.2271C93.6522 36.7465 93.7662 37.7608 93.9772 38.2358C94.2042 38.7087 94.7242 38.9553 95.5532 38.9553L97.9082 38.7922L98.0382 40.4425C96.8522 40.6387 95.9582 40.7363 95.3422 40.7363C93.9622 40.7363 93.0192 40.3942 92.4822 39.723C91.9452 39.0519 91.6862 37.7608 91.6862 35.8661V28.8545H89.8022V27.1218H91.6862V23.0364H93.6512V27.1057H97.8582L97.8592 28.8525ZM100.619 25.4041V23.0897H102.601V25.4101H100.619V25.4041ZM100.619 40.6045V27.1207H102.601V40.6045H100.619ZM111.219 26.843C111.804 26.843 112.795 26.9577 114.191 27.1701L114.824 27.2506L114.744 28.8686L111.624 28.6231C110.13 28.6231 109.106 28.9823 108.57 29.7018C108.034 30.4212 107.758 31.7616 107.758 33.7067C107.758 35.6517 108.002 37.0072 108.505 37.7759C109.008 38.5447 110.048 38.92 111.64 38.92L114.76 38.6745L114.84 40.3248L111.153 40.7011C109.09 40.7011 107.661 40.1617 106.881 39.0991C106.101 38.0365 105.695 36.2394 105.695 33.7056C105.695 31.1719 106.117 29.3908 106.962 28.3776C107.822 27.3643 109.236 26.841 111.218 26.841L111.219 26.843Z" fill="#080808"/>
</svg>
