<svg width="72" height="62" viewBox="0 0 72 62" fill="none" xmlns="http://www.w3.org/2000/svg">
<g clip-path="url(#clip0_6232_2672)">
<path d="M34.8977 37.0099C34.8076 36.9858 33.4216 36.6362 31.9486 36.6362C29.1599 36.6362 27.4809 38.1089 27.4809 40.3019C27.4809 42.2431 28.8855 43.2112 30.5712 43.7319C30.758 43.7922 31.0334 43.8766 31.2168 43.9359C31.9671 44.1668 32.5661 44.5098 32.5661 45.104C32.5661 45.7684 31.8739 46.1986 30.369 46.1986C29.0465 46.1986 27.7786 45.8287 27.5115 45.7628V48.461C27.6604 48.4919 29.1672 48.7812 30.7769 48.7812C33.0922 48.7812 35.7407 47.7918 35.7407 44.8466C35.7407 43.418 34.8463 42.1028 32.8827 41.4924L32.048 41.2325C31.55 41.0788 30.6609 40.8298 30.6609 40.116C30.6609 39.5521 31.3196 39.1551 32.5326 39.1551C33.5791 39.1551 34.8527 39.499 34.8977 39.5128V37.0099ZM60.4664 42.7089C60.4664 44.4148 59.1301 45.795 57.3371 45.795C55.5422 45.795 54.2094 44.4148 54.2094 42.7089C54.2094 41.0063 55.5422 39.6255 57.3371 39.6255C59.1301 39.6255 60.4664 41.0063 60.4664 42.7089ZM57.3371 36.64C53.6494 36.64 51.0048 39.36 51.0048 42.7089C51.0048 46.063 53.6494 48.7812 57.3371 48.7812C61.0245 48.7812 63.673 46.063 63.673 42.7089C63.673 39.36 61.0245 36.64 57.3371 36.64ZM23.4236 48.5725H20.3978V36.8477H23.4236" fill="#049FD9"/>
<path d="M16.239 37.0601C15.9547 36.9776 14.9038 36.6399 13.4803 36.6399C9.7984 36.6399 7.09558 39.2071 7.09558 42.7088C7.09558 46.4865 10.0792 48.7811 13.4803 48.7811C14.8316 48.7811 15.8631 48.4681 16.239 48.3637V45.2164C16.109 45.287 15.12 45.8386 13.6972 45.8386C11.6815 45.8386 10.3814 44.4513 10.3814 42.7088C10.3814 40.9131 11.7377 39.5814 13.6972 39.5814C15.1443 39.5814 16.1173 40.1453 16.239 40.2074" fill="#049FD9"/>
<path d="M47.8192 37.0601C47.5349 36.9776 46.484 36.6399 45.0605 36.6399C41.3786 36.6399 38.6758 39.2071 38.6758 42.7088C38.6758 46.4865 41.6594 48.7811 45.0605 48.7811C46.4118 48.7811 47.4433 48.4681 47.8192 48.3637V45.2164C47.6892 45.287 46.7002 45.8386 45.2774 45.8386C43.2617 45.8386 41.9616 44.4513 41.9616 42.7088C41.9616 40.9131 43.3179 39.5814 45.2774 39.5814C46.7245 39.5814 47.6975 40.1453 47.8192 40.2074" fill="#049FD9"/>
<path d="M20.3889 14.6804C20.3889 13.8722 19.7139 13.2168 18.8866 13.2168C18.0595 13.2168 17.3845 13.8722 17.3845 14.6804V30.2501C17.3845 31.0629 18.0595 31.718 18.8866 31.718C19.7139 31.718 20.3889 31.0629 20.3889 30.2501V14.6804ZM12.138 20.2072C12.138 19.3994 11.4633 18.743 10.6359 18.743C9.80858 18.743 9.13391 19.3994 9.13391 20.2072V27.3251C9.13391 28.1377 9.80858 28.7931 10.6359 28.7931C11.4633 28.7931 12.138 28.1377 12.138 27.3251V20.2072ZM3.88736 24.2471C3.88736 23.4389 3.21269 22.7839 2.38533 22.7839C1.55893 22.7839 0.883301 23.4389 0.883301 24.2471V27.3251C0.883301 28.1377 1.55893 28.7931 2.38533 28.7931C3.21269 28.7931 3.88736 28.1377 3.88736 27.3251" fill="#049FD9"/>
<path d="M17.3845 14.6804C17.3845 13.8722 18.0595 13.2168 18.8869 13.2168C19.7139 13.2168 20.3889 13.8722 20.3889 14.6804V30.2501C20.3889 31.0629 19.7139 31.718 18.8869 31.718C18.0595 31.718 17.3845 31.0629 17.3845 30.2501V14.6804ZM25.6355 20.2072C25.6355 19.3994 26.3101 18.743 27.1375 18.743C27.9649 18.743 28.6395 19.3994 28.6395 20.2072V27.3251C28.6395 28.1377 27.9649 28.7931 27.1375 28.7931C26.3101 28.7931 25.6355 28.1377 25.6355 27.3251V20.2072ZM33.8861 24.2471C33.8861 23.4389 34.5607 22.7839 35.3881 22.7839C36.2145 22.7839 36.8901 23.4389 36.8901 24.2471V27.3251C36.8901 28.1377 36.2145 28.7931 35.3881 28.7931C34.5607 28.7931 33.8861 28.1377 33.8861 27.3251" fill="#049FD9"/>
<path d="M50.3777 14.6804C50.3777 13.8722 51.0527 13.2168 51.8801 13.2168C52.7071 13.2168 53.3821 13.8722 53.3821 14.6804V30.2501C53.3821 31.0629 52.7071 31.718 51.8801 31.718C51.0527 31.718 50.3777 31.0629 50.3777 30.2501V14.6804ZM58.6286 20.2072C58.6286 19.3994 59.3033 18.743 60.1307 18.743C60.958 18.743 61.6327 19.3994 61.6327 20.2072V27.3251C61.6327 28.1377 60.958 28.7931 60.1307 28.7931C59.3033 28.7931 58.6286 28.1377 58.6286 27.3251V20.2072ZM66.8792 24.2471C66.8792 23.4389 67.5539 22.7839 68.3813 22.7839C69.2077 22.7839 69.8833 23.4389 69.8833 24.2471V27.3251C69.8833 28.1377 69.2077 28.7931 68.3813 28.7931C67.5539 28.7931 66.8792 28.1377 66.8792 27.3251" fill="#049FD9"/>
<path d="M53.3821 14.6804C53.3821 13.8722 52.7071 13.2168 51.8797 13.2168C51.0527 13.2168 50.3777 13.8722 50.3777 14.6804V30.2501C50.3777 31.0629 51.0527 31.718 51.8797 31.718C52.7071 31.718 53.3821 31.0629 53.3821 30.2501V14.6804ZM45.1311 20.2072C45.1311 19.3994 44.4565 18.743 43.6291 18.743C42.8017 18.743 42.1271 19.3994 42.1271 20.2072V27.3251C42.1271 28.1377 42.8017 28.7931 43.6291 28.7931C44.4565 28.7931 45.1311 28.1377 45.1311 27.3251V20.2072ZM36.8805 24.2471C36.8805 23.4389 36.2059 22.7839 35.3785 22.7839C34.5521 22.7839 33.8765 23.4389 33.8765 24.2471V27.3251C33.8765 28.1377 34.5521 28.7931 35.3785 28.7931C36.2059 28.7931 36.8805 28.1377 36.8805 27.3251" fill="#049FD9"/>
</g>
<defs>
<clipPath id="clip0_6232_2672">
<rect width="71" height="62" fill="white" transform="translate(0.5)"/>
</clipPath>
</defs>
</svg>
