<svg width="40" height="40" viewBox="0 0 40 40" fill="none" xmlns="http://www.w3.org/2000/svg">
<path d="M19.9999 16.8871V9.77344M19.9999 9.77344L16.6523 12.7026M19.9999 9.77344L23.3475 12.7026" stroke="#1C3C3C" stroke-width="1.04612" stroke-linecap="round"/>
<path d="M11.7471 16.6092L14.8687 15.0886M28.1367 16.6092L24.532 15.0732" stroke="#1C3C3C" stroke-width="1.04612" stroke-linecap="round"/>
<path d="M11.166 26.0446V16.5752C11.166 16.2354 11.5186 16.0104 11.8268 16.1535L19.8041 19.858C19.9283 19.9156 20.0716 19.9156 20.1957 19.858L28.1731 16.1535C28.4813 16.0104 28.8338 16.2354 28.8338 16.5752L28.8339 26.2747C28.8339 26.4647 28.7182 26.6356 28.5418 26.7063L19.935 30.1529C19.8175 30.2 19.6859 30.1971 19.5706 30.1449L11.4394 26.4682C11.273 26.393 11.166 26.2272 11.166 26.0446Z" fill="#1C3C3C"/>
</svg>
