<svg width="44" height="40" viewBox="0 0 44 40" fill="none" xmlns="http://www.w3.org/2000/svg">
<path d="M11.5 10.6456C11.5 10.2843 11.7926 9.9917 12.1539 9.9917C12.5153 9.9917 12.8079 10.2843 12.8079 10.6456V28.3583H30.9068C31.2681 28.3583 31.5614 28.651 31.5616 29.0122C31.5616 29.3736 31.2682 29.667 30.9068 29.667H12.1539C11.7926 29.667 11.5 29.3736 11.5 29.0122V10.6456Z" fill="#1C3C3C"/>
<path d="M13.9594 17.4379C13.9594 17.1119 14.2237 16.8476 14.5498 16.8476H18.1789C18.505 16.8476 18.7693 17.1119 18.7693 17.4379V27.4142H13.9594V17.4379Z" fill="#1C3C3C"/>
<path d="M19.698 12.4C19.698 12.0739 19.9624 11.8096 20.2884 11.8096H23.9176C24.2436 11.8096 24.5079 12.0739 24.5079 12.4V27.4142H19.698V12.4Z" fill="#1C3C3C"/>
<path d="M25.4367 19.7615C25.4367 19.4355 25.701 19.1712 26.027 19.1712H29.6562C29.9823 19.1712 30.2466 19.4355 30.2466 19.7615V27.4142H25.4367V19.7615Z" fill="#1C3C3C"/>
</svg>
