<svg width="40" height="40" viewBox="0 0 40 40" fill="none" xmlns="http://www.w3.org/2000/svg">
<path d="M27.2709 20C27.2709 24.0556 24.0156 27.3433 20 27.3433C15.9844 27.3433 12.7291 24.0556 12.7291 20C12.7291 15.9444 15.9844 12.6567 20 12.6567C24.0156 12.6567 27.2709 15.9444 27.2709 20Z" fill="#1C3C3C"/>
<path d="M21.3596 9.37313C21.3596 10.1315 20.7509 10.7463 20 10.7463C19.2491 10.7463 18.6404 10.1315 18.6404 9.37313C18.6404 8.61477 19.2491 8 20 8C20.7509 8 21.3596 8.61477 21.3596 9.37313Z" fill="#1C3C3C"/>
<path d="M21.3596 30.6269C21.3596 31.3852 20.7509 32 20 32C19.2491 32 18.6404 31.3852 18.6404 30.6269C18.6404 29.8685 19.2491 29.2537 20 29.2537C20.7509 29.2537 21.3596 29.8685 21.3596 30.6269Z" fill="#1C3C3C"/>
<path d="M32 20C32 20.7584 31.3913 21.3731 30.6404 21.3731C29.8895 21.3731 29.2808 20.7584 29.2808 20C29.2808 19.2416 29.8895 18.6269 30.6404 18.6269C31.3913 18.6269 32 19.2416 32 20Z" fill="#1C3C3C"/>
<path d="M10.7192 20C10.7192 20.7584 10.1105 21.3731 9.35961 21.3731C8.60872 21.3731 8 20.7584 8 20C8 19.2416 8.60872 18.6269 9.35961 18.6269C10.1105 18.6269 10.7192 19.2416 10.7192 20Z" fill="#1C3C3C"/>
<path d="M26.3251 12.8358C26.3251 13.5942 26.9338 14.209 27.6847 14.209C28.4356 14.209 29.0443 13.5942 29.0443 12.8358C29.0443 12.0775 28.4356 11.4627 27.6847 11.4627C26.9338 11.4627 26.3251 12.0775 26.3251 12.8358Z" fill="#1C3C3C"/>
<path d="M10.7192 12.8358C10.7192 13.5942 11.3279 14.209 12.0788 14.209C12.8297 14.209 13.4384 13.5942 13.4384 12.8358C13.4384 12.0775 12.8297 11.4627 12.0788 11.4627C11.3279 11.4627 10.7192 12.0775 10.7192 12.8358Z" fill="#1C3C3C"/>
<path d="M26.3251 27.2836C26.3251 26.5252 26.9338 25.9104 27.6847 25.9104C28.4356 25.9104 29.0443 26.5252 29.0443 27.2836C29.0443 28.0419 28.4356 28.6567 27.6847 28.6567C26.9338 28.6567 26.3251 28.0419 26.3251 27.2836Z" fill="#1C3C3C"/>
<path d="M10.7192 27.2836C10.7192 26.5252 11.3279 25.9104 12.0788 25.9104C12.8297 25.9104 13.4384 26.5252 13.4384 27.2836C13.4384 28.0419 12.8297 28.6567 12.0788 28.6567C11.3279 28.6567 10.7192 28.0419 10.7192 27.2836Z" fill="#1C3C3C"/>
</svg>
